<?xml version="1.0" encoding="utf-8"?>
<!-- Generator: Adobe Illustrator 21.0.0, SVG Export Plug-In . SVG Version: 6.00 Build 0)  -->
<svg version="1.1" id="Icon" xmlns="http://www.w3.org/2000/svg" xmlns:xlink="http://www.w3.org/1999/xlink" x="0px" y="0px"
	 viewBox="0 0 26 26" style="enable-background:new 0 0 26 26;" xml:space="preserve">
<style type="text/css">
	.st0{fill:none;stroke:#FFFFFF;stroke-miterlimit:10;}
	.st1{fill:#FFFFFF;}
</style>
<title>1</title>
<path d="M3.6,0h18.8c2,0,3.6,1.6,3.6,3.6c0,0,0,0,0,0v18.8c0,2-1.6,3.6-3.6,3.6c0,0,0,0,0,0H3.6c-2,0-3.6-1.6-3.6-3.6c0,0,0,0,0,0
	V3.6C0,1.6,1.6,0,3.6,0C3.6,0,3.6,0,3.6,0z"/>
<path class="st0" d="M9.6,9.8c-1.8,1.7-1.9,4.6-0.2,6.4c0,0,0,0,0,0"/>
<circle class="st1" cx="13.1" cy="13" r="2.8"/>
<path class="st0" d="M7.6,8.2c-2.5,2.6-2.6,6.8-0.2,9.5"/>
<path class="st0" d="M16.6,9.8c1.8,1.7,1.9,4.6,0.2,6.4c0,0,0,0,0,0"/>
<path class="st0" d="M18.5,8.2c2.5,2.6,2.6,6.8,0.2,9.5"/>
</svg>
