<svg id="Icon" xmlns="http://www.w3.org/2000/svg" width="26" height="26" viewBox="0 0 26 26"><title>1</title><path d="M3.6,0H22.4A3.59,3.59,0,0,1,26,3.6V22.4A3.59,3.59,0,0,1,22.4,26H3.6A3.59,3.59,0,0,1,0,22.4V3.6A3.59,3.59,0,0,1,3.6,0Z"/><path d="M9.06,10a5,5,0,0,0-.19,7.07" style="fill:none;stroke:#fff;stroke-miterlimit:10"/><circle cx="12.96" cy="13.54" r="3.09" style="fill:#fff"/><path d="M6.72,8.54a7.08,7.08,0,0,0-.26,10" style="fill:none;stroke:#fff;stroke-miterlimit:10"/><path d="M16.87,10a5,5,0,0,1,.19,7.07" style="fill:none;stroke:#fff;stroke-miterlimit:10"/><path d="M19.07,8.54a7.08,7.08,0,0,1,.26,10" style="fill:none;stroke:#fff;stroke-miterlimit:10"/></svg>