<?xml version="1.0" encoding="utf-8"?>
<!-- Generator: Adobe Illustrator 21.0.0, SVG Export Plug-In . SVG Version: 6.00 Build 0)  -->
<svg version="1.1" id="_x30_315a8ac-3017-4957-93c4-92e478eebb20"
	 xmlns="http://www.w3.org/2000/svg" xmlns:xlink="http://www.w3.org/1999/xlink" x="0px" y="0px" viewBox="0 0 1036 612"
	 style="enable-background:new 0 0 1036 612;" xml:space="preserve">
<style type="text/css">
	.st0{opacity:0.2;enable-background:new    ;}
	.st1{fill:#F5F5F5;}
	.st2{fill:none;stroke:#535461;stroke-width:2;stroke-miterlimit:10;}
	.st3{opacity:0.2;fill:#F5F5F5;enable-background:new    ;}
	.st4{fill:url(#SVGID_1_);}
	.st5{fill:#FFFFFF;}
	.st6{fill:url(#SVGID_2_);}
	.st7{fill:url(#SVGID_3_);}
	.st8{fill:url(#SVGID_4_);}
	.st9{fill:#F7C4A7;}
	.st10{opacity:5.000000e-02;enable-background:new    ;}
	.st11{fill:#575988;}
	.st12{opacity:0.1;enable-background:new    ;}
	.st13{fill:#F3B5B7;}
	.st14{fill:#DDDBE2;}
	.st15{fill:#FC6681;}
</style>
<title>web_devices</title>
<path class="st0" d="M151.4,0.1c-8.1-0.2-16.3,0-23.9,2.3c-20.6,6.3-30.3,27-27.1,44.9s16.2,33.4,29.7,47.7s28.2,28.3,35.6,45.3
	c3.7,8.5,5.4,18,1.7,26.5c-5.8,13.1-23.3,20.4-40.1,21.9s-33.6-1.4-50.5-2.4c-7.1-0.4-14.3-0.5-21,1.5c-7.3,2.1-13.4,6.3-19,10.8
	c-21.8,17.4-39.3,41.1-36.5,66c3.2,28.2,31.7,50.5,63,62.5c10.4,4,21.3,7.2,30.4,12.8c24,14.9,29.4,42.9,27,67.6s-10.5,49.5-6,73.9
	c5.3,28.5,28.9,54.2,60.7,66.2c28.4,10.7,63.8,10,89-5.1c12.3-7.4,21.5-17.6,29.6-28.2c12-15.7,21.9-32.8,29.5-51
	c3.5-8.5,6.8-17.6,15-23.5c5-3.6,11.5-5.7,17.9-7.2c19.3-4.8,39.7-6.1,59.2-10.3s39.1-12.2,49.7-26.3c15-20,8-45.6,8.1-69.1
	c0.1-53.7,39.1-101.7,53.5-154c4.7-17.1,6.5-36-4-51.2c-7.1-10.4-19.2-17.8-31.8-23.6c-27.8-12.7-59.4-18.3-90.5-23.8
	c-43.2-7.6-95.7-8.6-129.2-33.4C239.2,17,195.2,0.1,151.4,0.1z"/>
<ellipse class="st1" cx="571" cy="487.5" rx="465" ry="124.5"/>
<path d="M957.2,186.9c0,0-35.8,35.8-15.6,89c20.2,53.2-34.7,141.6-34.7,141.6s0.6-0.1,1.7-0.3c73.6-13,110.2-97.2,69.2-159.7
	C962.6,234.2,950.1,207,957.2,186.9z"/>
<path class="st2" d="M957.2,186.9c0,0-20.2,43.9,0,79.8s3.5,136.4-50.3,150.8"/>
<path d="M1021,331.8c0,0-40.9-6.5-44.6,30.1s-78.6,41.7-78.6,41.7l1.4,0.9c61.8,40.6,121,25.9,112-28
	C1007.9,356.5,1008.2,336.4,1021,331.8z"/>
<path class="st3" d="M1021,331.8c0,0-40.9-6.5-44.6,30.1s-78.6,41.7-78.6,41.7l1.4,0.9c61.8,40.6,121,25.9,112-28
	C1007.9,356.5,1008.2,336.4,1021,331.8z"/>
<path class="st2" d="M1021,331.8c0,0-31.7,7-29.1,35.8c2.6,28.8-47.1,63.4-94.1,36"/>
<linearGradient id="SVGID_1_" gradientUnits="userSpaceOnUse" x1="675.05" y1="8" x2="675.05" y2="373.72" gradientTransform="matrix(1 0 0 -1 -82 470)">
	<stop  offset="0" style="stop-color:#808080;stop-opacity:0.25"/>
	<stop  offset="0.54" style="stop-color:#808080;stop-opacity:0.12"/>
	<stop  offset="1" style="stop-color:#808080;stop-opacity:0.1"/>
</linearGradient>
<path class="st4" d="M926.4,419.9h-64.2c1.5-3,2.2-6.2,2.2-9.6V117.8c0-11.9-9.6-21.5-21.5-21.5l0,0H345.5
	c-11.9,0-21.5,9.6-21.5,21.5c0,0,0,0,0,0v292.6c0,3.3,0.8,6.6,2.2,9.6h-66.5c-3.1,0-5.7,2.5-5.7,5.7l0,0v4.6
	c0,17.6,14.3,31.8,31.8,31.8h614.4c17.6,0,31.8-14.2,31.8-31.8l0,0v-4.6C932,422.5,929.5,419.9,926.4,419.9z M530.5,438.1l-5.5-6.2
	h136.7l-6.1,6.3L530.5,438.1z"/>
<path d="M353.4,100.4H835c12.8,0,23.3,10.4,23.3,23.3v281.5c0,12.8-10.4,23.3-23.3,23.3H353.4c-12.8,0-23.3-10.4-23.3-23.3V123.7
	C330.1,110.8,340.5,100.4,353.4,100.4z"/>
<rect x="341.2" y="148.2" class="st5" width="504.8" height="268"/>
<circle class="st5" cx="593.6" cy="124.9" r="4.5"/>
<path d="M671.5,416.7l-17.3,17.8H531.9l-15.7-17.8H267.3c-3.1,0-5.6,2.5-5.6,5.6v4.5c0,17.2,13.9,31.1,31.1,31.1h600.5
	c17.2,0,31.1-13.9,31.1-31.1v-4.5c0-3.1-2.5-5.6-5.6-5.6L671.5,416.7z"/>
<linearGradient id="SVGID_2_" gradientUnits="userSpaceOnUse" x1="473.945" y1="-21.61" x2="473.945" y2="312.35" gradientTransform="matrix(1 0 0 -1 -82 470)">
	<stop  offset="0" style="stop-color:#808080;stop-opacity:0.25"/>
	<stop  offset="0.54" style="stop-color:#808080;stop-opacity:0.12"/>
	<stop  offset="1" style="stop-color:#808080;stop-opacity:0.1"/>
</linearGradient>
<path class="st6" d="M498.4,157.6H285.5c-10.8,0-19.5,8.7-19.5,19.5v295c0,10.8,8.8,19.5,19.5,19.5h212.9c10.8,0,19.5-8.7,19.5-19.5
	v-295C517.9,166.4,509.2,157.6,498.4,157.6z"/>
<path d="M288.9,161.6h206c11,0,20,9,20,20v287c0,11-9,20-20,20h-206c-11,0-20-9-20-20v-287C268.9,170.6,277.9,161.6,288.9,161.6z"/>
<rect x="281.4" y="192.6" class="st5" width="221" height="265.1"/>
<circle class="st5" cx="390.9" cy="176.6" r="3"/>
<circle class="st5" cx="390.9" cy="472.6" r="9"/>
<linearGradient id="SVGID_3_" gradientUnits="userSpaceOnUse" x1="363.445" y1="-48.65" x2="363.445" y2="212.35" gradientTransform="matrix(1 0 0 -1 -82 470)">
	<stop  offset="0" style="stop-color:#808080;stop-opacity:0.25"/>
	<stop  offset="0.54" style="stop-color:#808080;stop-opacity:0.12"/>
	<stop  offset="1" style="stop-color:#808080;stop-opacity:0.1"/>
</linearGradient>
<path class="st7" d="M336.1,257.6H226.8c-6,0-10.8,4.8-10.8,10.8v0v239.4c0,6,4.9,10.8,10.8,10.8l0,0h109.3c6,0,10.8-4.8,10.8-10.8
	l0,0V268.4C346.9,262.5,342.1,257.6,336.1,257.6L336.1,257.6z"/>
<path d="M227.9,259.6h107c6.1,0,11,4.9,11,11v236c0,6.1-4.9,11-11,11h-107c-6.1,0-11-4.9-11-11v-236
	C216.9,264.6,221.9,259.6,227.9,259.6z"/>
<rect x="226.4" y="283.6" class="st5" width="110" height="210"/>
<circle class="st5" cx="268.4" cy="271.6" r="1"/>
<path class="st5" d="M274.4,270.6h20c0.6,0,1,0.4,1,1l0,0c0,0.6-0.4,1-1,1h-20c-0.6,0-1-0.4-1-1l0,0
	C273.4,271.1,273.9,270.6,274.4,270.6z"/>
<circle class="st5" cx="280.9" cy="503.6" r="7"/>
<linearGradient id="SVGID_4_" gradientUnits="userSpaceOnUse" x1="849.6692" y1="-89.5755" x2="849.6692" y2="228.4932" gradientTransform="matrix(1 0 0 -1 -82 470)">
	<stop  offset="0" style="stop-color:#808080;stop-opacity:0.25"/>
	<stop  offset="0.54" style="stop-color:#808080;stop-opacity:0.12"/>
	<stop  offset="1" style="stop-color:#808080;stop-opacity:0.1"/>
</linearGradient>
<path class="st8" d="M995,393.1c-11.1-13.4-24.5-28.9-22.6-46.7c1.5-14.5-2.1-27.9-1.4-42.4c1-20.6-3.1-36.8-18-50
	c-8.7-7.7-23.2-13.8-27.5-12.2c-8.6,3.1-17.9,1.9-26.7,4c-6.7,1.6-11.1,4-13.9,7c-5.5,5-5.6,12-3.1,19.5
	c-8.7,15.9-2.8,35.9,13.1,44.6c1,0.6,2.1,1.1,3.1,1.5c-6.2,2.6-11.5,8.5-13.6,20.6c-1.4,8.3-3.6,16.4-6.5,24.3
	c-1.3,0.6-2.6,1.1-4,1.6c0.3,0.1,0.6,0.2,0.9,0.3c-0.7,0.2-1.3,0.5-2,0.7c1.2,0.5,2.4,0.8,3.7,1.1c-8,20.2-18,32.7-18,32.7
	s-18.7,4.1-25.9-3.1c0,0,1.2,1.4,2.8,3.5c-7.1-2.9-18.7-7.7-28.7-11.7c-7.2-2.9-9.1,0-9,4c-1.8,0.2-3.5,0.8-5,1.7
	c-2.1-1.4-4.4-2.6-6.7-3.6c-4.1-1-17.6-8.2-31.1,16.5c-7.8,14.4-27.9,40.6-43.4,60c-30,13.8-69.2,31.3-83.7,35.7h-9.3
	c-1.2-2-2.1-3.3-2.1-3.3l-0.7,0.5l-0.3-0.5c0,0-18.3,12.7-36.9,12.8c-2.6,0-5.3-0.4-7.8-1c-8.5-2.2-14.6-3.1-18.9-3
	c-5.1-0.1-8,1.1-9.8,3.4l0,0c-0.2,0.3-0.5,0.6-0.7,0.9l0,0c-0.2,0.3-0.4,0.7-0.5,1l0,0c-0.2,0.4-0.3,0.7-0.5,1.1
	c-0.1,0.7,0.1,1.4,0.6,2c0.2,0.3,0.5,0.7,0.8,1l0.5,0.6c2.3,2.4,6.6,5.6,11.9,9.2c1.5,1,3.2,2.1,4.8,3.2l3.2,2l2.9,1.8l1.2,0.7
	l1.3,0.8l2.3,1.4l1.4,0.8l2.6,1.5l2.1,1.2c5.4,3.2,10.9,6.3,15.8,9.1l3.4,2l0.3,0.2l2.2,1.2l3.8,2.1l2.6,1.4l1.2,0.7l1.3,0.7
	l0.3,0.1l2.3,1.2c0.9,0.2,1.9-0.1,2.7-0.7c0.7-2.8,2.3-8.8,4-9.3s9.2-13.5,11.3-22.3h20.2c4-0.3,7.9-0.9,11.8-1.8
	c-5.2,3.7-10.4,6.1-14.4,5.1c-8.5-2.1-16.5,3.1-17.4,8.2c0,0.1-0.1,0.2-0.1,0.3s0,0.2-0.1,0.3s-0.1,0.2-0.1,0.4s0,0.2,0,0.3
	s0,0.2,0,0.4s0,0.2,0,0.3s0,0.3,0,0.4s0,0.2,0,0.3s0.1,0.3,0.1,0.4s0,0.2,0.1,0.3c0.1,0.2,0.1,0.4,0.2,0.5l0,0.1
	c0.1,0.2,0.2,0.4,0.4,0.6l0.2,0.2c0.1,0.1,0.2,0.3,0.3,0.4l0.2,0.2c0.1,0.1,0.2,0.2,0.4,0.4l0.3,0.2l0.5,0.3l0.3,0.2l0.5,0.3
	l0.4,0.2l0.7,0.3l0.3,0.2c0.4,0.2,0.7,0.3,1.2,0.4c0.7,0.2,1.4,0.4,2.3,0.7l0.9,0.2l1.3,0.3l0.7,0.2c0.9,0.2,1.8,0.4,2.8,0.6
	l1.3,0.2l1.1,0.2l2.5,0.4c1.6,0.3,3.2,0.5,5,0.8l4.4,0.7l5.7,0.8l1.3,0.2l2,0.3l2.9,0.4l2,0.3l0,0l5.2,0.7l1.6,0.2l3.3,0.4
	c4.3,0.5,8.5,1,12.3,1.4l4.4,0.5l2.2,0.2l1,0.1l2.7,0.3l1.5,0.2l1.8,0.2l2.6,0.3h0.3l1.7,0.2l0,0c0.8,0.1,1.6-0.5,1.7-1.3
	c0,0,0-0.1,0-0.1l0,0l0,0c0,0,0-0.1,0-0.2c0.2-0.2,0.2-0.5,0.2-0.8c0-2.5,0.4-4.9,0.9-7.3c0.1-0.4,0.2-0.8,0.4-1.2l0.2-0.5
	c0.2-0.5,0.4-1,0.6-1.5c0.2-0.4,0.3-0.8,0.4-1.1c0-0.1,0.1-0.2,0.1-0.4s0.1-0.4,0.1-0.6c2.1-7.1-0.4-20.4-1.2-25.6
	c-0.2-1.7-0.6-3.3-1.1-4.9c0.1,0,0.3,0,0.4,0c1.1-0.4,2.1-0.9,3-1.6c15.3-5.5,28.2-11.7,32.2-17.9c6.6-1.7,13.6-1,19.7,2.1
	c7.9,3.9,67.8,23.5,95.6,32.5c5,4.3,8.9,6.8,11.1,6.6c0,0,35.5,5.7,49.7-5.5c1.3,0.9,2.1,1.3,2.1,1.3s20.7-10.3,23.8-23.7
	c1-4.3,1.9-10.7,2.8-17.8c4.8-4.8,7.5-11.4,7.5-18.2c0.7-22.5,9.4-48.2,15.8-71c7.8,0.6,10.9-0.9,18.1-4.4l-0.3-0.4
	C994.1,393.5,994.6,393.3,995,393.1z M876.2,426.8l-4-1.3c1.3-1.8,2.5-3.7,3.5-5.7L876.2,426.8z M853.9,436.2l24,14.4l0.2,2.9
	c-0.3,2.2-0.2,4.5,0.2,6.7C867.8,450.9,855.4,439.5,853.9,436.2L853.9,436.2z M844.1,415.2c-2.6-1.1-4.8-2.1-6.3-2.9
	c2,0.1,3.9,0.3,5.6,0.3C843.7,413.5,844,414.4,844.1,415.2L844.1,415.2z M779.8,438.7c0,0,4.1-9.3,13.5,6.2c1.5,2.4,4.1,6.2,7.7,11
	l-27.2-3.6C777,447.2,779.2,442.6,779.8,438.7L779.8,438.7z"/>
<path class="st9" d="M839.5,401.5c0,0-19-8-34-14s-6,14-6,14s25,7,25,8s21,2,21,2L839.5,401.5z"/>
<path class="st10" d="M839.5,401.5c0,0-19-8-34-14s-6,14-6,14s25,7,25,8s21,2,21,2L839.5,401.5z"/>
<path class="st11" d="M920.5,322.5c0,0-34-18-40,17s-25,59-25,59s-18,4-25-3c0,0,17,20,9,22c0,0,18,13,26,9s14-31,17-38
	S896.5,320.5,920.5,322.5z"/>
<path class="st12" d="M920.5,322.5c0,0-34-18-40,17s-25,59-25,59s-18,4-25-3c0,0,17,20,9,22c0,0,18,13,26,9s14-31,17-38
	S896.5,320.5,920.5,322.5z"/>
<path class="st9" d="M901.5,310.5c0,0,21,24,22,44s24-21,26-22s-20-35-22-46S901.5,310.5,901.5,310.5z"/>
<polygon class="st9" points="916,320.8 902.8,332.8 909,358 926,342 924,326 "/>
<polygon class="st9" points="639.5,498.5 616.5,498.5 625.5,520.5 647.5,514.5 "/>
<path class="st12" d="M621.8,495.3c0,0-23.8,16.6-44.2,11.4s-25.9-3.2-28.2,3.4c-2.2,6.1,56.8,38.5,66.2,43.7
	c0.5,0.3,1.2,0.1,1.5-0.4c0-0.1,0.1-0.2,0.1-0.3c0.6-2.7,2.2-8.5,3.8-9c2.2-0.6,12-19,11.5-26.2S621.8,495.3,621.8,495.3z"/>
<path class="st13" d="M620.8,495.3c0,0-23.8,16.6-44.2,11.4s-25.9-3.2-28.2,3.4c-2.2,6.1,56.8,38.5,66.2,43.7
	c0.5,0.3,1.2,0.1,1.5-0.4c0-0.1,0.1-0.2,0.1-0.3c0.6-2.7,2.2-8.5,3.8-9c2.2-0.6,12-19,11.5-26.2S620.8,495.3,620.8,495.3z"/>
<path class="st11" d="M817.5,455.5l-67-9c0,0-109,52-122,53l3,23h20c8,0,86-17,97-34c6.4-1.7,13.1-1,19,2c10,5,106,36,106,36
	L817.5,455.5z"/>
<path class="st12" d="M817.5,455.5l-67-9c0,0-109,52-122,53l3,23h20c8,0,86-17,97-34c6.4-1.7,13.1-1,19,2c10,5,106,36,106,36
	L817.5,455.5z"/>
<polygon class="st9" points="698.5,486.5 687.5,500.5 698.5,506.5 714.5,494.5 "/>
<path class="st11" d="M889.5,470.5c0,0-36-30.8-38.5-36.4s-61.5-43.6-65.5-44.6s-17-8-30,16s-61,82-61,82s15,21,20,20s61-48,65-71
	c0,0,4-9,13,6s67,87,78,86c0,0,43,7,52-10S889.5,470.5,889.5,470.5z"/>
<path class="st14" d="M910,324c0,0-12.5,5.5-13.5,28.5s-23,62-23,62l2,46c0,0,24,24,26,39s19,25,19,25s20-10,23-23s5-45,10-57
	s2-87,2-87l-15-26l-8-9l-21,24C911.5,346.5,900,331,910,324z"/>
<path class="st12" d="M880.5,445.5c0,0-3-36,6-44l18-51c0,0,6.5-24.5,5.5-26.5s-23.5,19.5-23.5,19.5l-15,53l4,56L880.5,445.5z"/>
<path class="st11" d="M879.5,445.5c0,0-3-36,6-44l18-51c0,0,7-25,6-27s-24,20-24,20l-15,53l4,56L879.5,445.5z"/>
<path class="st9" d="M886.5,429.5c0,0-50-16-53-20s-35-30-46-12s41,23,41,23l53,32L886.5,429.5z"/>
<path class="st12" d="M700.7,500.4l-14.8-2.7c0,0-24.2,31-36.9,27.9s-24.2,10.4-10.9,14.8c12,3.9,64.1,9.5,74,10.5
	c0.8,0.1,1.5-0.5,1.6-1.3c0,0,0-0.1,0-0.1c0.1-3.9,0.9-7.7,2.3-11.3c2.7-6.5,0-20.6-0.7-26c-0.4-3.2-1.4-6.2-2.9-9L700.7,500.4z"/>
<path class="st13" d="M700.4,501.4l-14.8-2.7c0,0-24.2,31-36.8,27.9s-24.2,10.4-10.9,14.8c12,3.9,64.1,9.5,74,10.5
	c0.8,0.1,1.5-0.5,1.6-1.3c0,0,0-0.1,0-0.1c0-3.9,0.8-7.7,2.2-11.3c2.7-6.5,0-20.6-0.7-26c-0.4-3.2-1.4-6.2-2.9-9L700.4,501.4z"/>
<circle class="st12" cx="909" cy="290" r="32"/>
<ellipse class="st9" cx="906" cy="285.2" rx="32" ry="36.8"/>
<path class="st11" d="M937.5,321.5c0,0,38,13,38,40s-21,70-22,105s-56,30-56,30s-8-118,0-127S941.5,325.5,937.5,321.5z"/>
<path class="st12" d="M930.5,377.5c0,0-14,62-47,51c0,0-17,25-5,36c0,0,29,7,48-12s33-26,36-49s5-55-5-52S930.5,377.5,930.5,377.5z"
	/>
<path class="st11" d="M931.5,376.5c0,0-14,62-47,51c0,0-17,25-5,36c0,0,29,7,48-12s33-26,36-49s5-55-5-52S931.5,376.5,931.5,376.5z"
	/>
<path class="st14" d="M716.5,536c0,0.1-0.1,0.2-0.1,0.3c-0.7,1.7-1.2,3.5-1.6,5.3c0.2-0.8,0.5-1.6,0.8-2.4
	C716.1,538.2,716.4,537.1,716.5,536z"/>
<path class="st14" d="M638.6,538.5c-4.1-1.3-5.8-3.6-5.9-5.9c-1.7,3.3-0.6,6.9,5.2,8.8c12,3.9,64.1,9.5,74,10.5
	c0.8,0.1,1.5-0.5,1.6-1.3c0,0,0-0.1,0-0.1l0,0c0-0.8-0.6-1.4-1.3-1.5C701.3,547.8,650.5,542.4,638.6,538.5z"/>
<path class="st14" d="M549.8,508.4c0.3-0.7,0.6-1.4,1-2.1c-1.1,1.1-1.9,2.4-2.3,3.9c-2.2,6.1,56.8,38.5,66.2,43.7
	c0.5,0.3,1.2,0.1,1.5-0.4c0-0.1,0.1-0.2,0.1-0.3l0,0c0.1-0.5-0.1-1-0.5-1.2C605.3,546.3,547.6,514.5,549.8,508.4z"/>
<path class="st14" d="M621.4,542.4c-0.5,0.1-1,0.8-1.5,1.8l0.2-0.1c0.4-0.1,1.2-1,2.1-2.3C622,542.1,621.7,542.3,621.4,542.4z"/>
<path class="st12" d="M901.6,318.2c-2.8,6.2-3.4,13.2-5.5,19.8c-4.1,12.9-14.4,23.6-26.8,27.8c10.4,4.1,22.7-0.9,30.7-9.3
	s12.7-19.6,17.2-30.5c11.7,7.8,10.2,25.9,14.2,39.9c3.4,12.4,12,22.6,23.5,28.2c11.5,5.2,24.8,4.9,36.1-0.7
	c-10.7-13-25.9-30.9-24.1-48.3c1.5-14.1-8.6-24.8-7.9-38.9c1-20-6.7-30.2-21-43c-8.4-7.5,4.8-18.1-6-15c-4.2,1.2-8.7-3.3-12.9-1.8
	c-8.3,3-17.3,1.8-25.8,3.8C849.2,260.4,905.7,309.1,901.6,318.2z"/>
<path class="st15" d="M901.6,312.2c-2.8,6.6-3.4,14.1-5.5,21c-4.1,13.7-14.4,25.1-26.8,29.5c10.4,4.4,22.7-1,30.7-9.9
	c8-8.9,12.7-20.8,17.2-32.4c11.7,8.3,10.2,27.5,14.2,42.4c3.4,13.1,12,24,23.5,29.9c11.5,5.5,24.8,5.2,36.1-0.8
	c-10.7-13.8-24.9-29.7-23.1-48.1c1.5-14.9-0.7-30.3,0-45.3c1-21.3-8.8-41.8-23.2-55.4c-8.4-8-21.5-9-25.7-7.4
	c-8.3,3.2-17.3,2-25.8,4.1C849.2,250.8,905.7,302.5,901.6,312.2z"/>
</svg>
