<svg width="26" height="26" xmlns="http://www.w3.org/2000/svg" xml:space="preserve" version="1.1">
 <g>
  <path fill="#ffffff" id="svg_1" d="m3.6,0l18.8,0c2,0 3.6,1.6 3.6,3.6l0,18.8c0,2 -1.6,3.6 -3.6,3.6l-18.8,0c-2,0 -3.6,-1.6 -3.6,-3.6l0,-18.8c0,-2 1.6,-3.6 3.6,-3.6z"/>
  <g id="Angle_brackets">
   <polygon id="svg_2" fill="#000000" points="13.5,9.8 13.5,13 19.3,16.1 13.5,19.3 13.5,22.5 21.8,17.5 21.8,14.8  " class="st0"/>
   <polygon id="svg_3" fill="#000000" points="4.3,17.5 12.6,22.5 12.6,19.3 6.9,16.1 12.6,13 12.6,9.8 4.3,14.8  " class="st0"/>
  </g>
  <g id="Curly_brackets">
   <path id="svg_4" fill="#000000" d="m17.1,6.6c-0.1,0 -0.3,-0.1 -0.4,-0.2c-0.1,-0.1 -0.2,-0.2 -0.2,-0.4s0,-0.4 0,-0.6c0,-0.3 0,-0.7 -0.1,-1c-0.1,-0.2 -0.2,-0.4 -0.4,-0.5c-0.3,-0.1 -0.6,-0.2 -0.9,-0.3c-0.4,-0.1 -0.8,-0.1 -1.2,-0.1l-0.4,0l0,0.9c0.3,0 0.6,0 0.9,0c0.1,0 0.2,0.1 0.3,0.1c0.1,0.1 0.1,0.2 0.1,0.3c0,0.2 0,0.5 0.1,0.9c0,0.2 0.1,0.4 0.2,0.6c0.1,0.1 0.2,0.3 0.3,0.4c0.2,0.1 0.4,0.2 0.6,0.3c-0.2,0.1 -0.4,0.2 -0.6,0.3c-0.2,0.1 -0.3,0.3 -0.4,0.4c-0.1,0.2 -0.1,0.4 -0.2,0.6c0,0.4 0,0.7 0,0.8s0,0.3 -0.1,0.4c-0.1,0.1 -0.2,0.1 -0.3,0.1c-0.3,0 -0.6,0.1 -0.9,0.1l0,0.9l0.3,0c0.4,0 0.9,0 1.3,-0.1c0.3,0 0.5,-0.1 0.8,-0.3c0.2,-0.1 0.3,-0.3 0.4,-0.5c0.1,-0.3 0.1,-0.6 0.1,-0.8c0,-0.3 0,-0.6 0.1,-0.9c0.1,-0.2 0.2,-0.3 0.4,-0.4c0.3,-0.1 0.6,-0.2 0.9,-0.2l0,-0.7c-0.2,0 -0.4,0 -0.7,-0.1z" class="st0"/>
   <path id="svg_5" fill="#000000" d="m8.3,6.7l0,0.7c0.3,0 0.6,0.1 0.9,0.2c0.2,0.1 0.3,0.2 0.4,0.4c0.1,0.3 0.1,0.6 0.1,0.9c0,0.2 0,0.5 0.1,0.8c0.1,0.2 0.2,0.4 0.4,0.5c0.3,0.2 0.5,0.3 0.8,0.3c0.4,0.1 0.9,0.1 1.3,0.1l0.3,0l0,-0.9c-0.3,0 -0.6,-0.1 -0.9,-0.1c-0.1,0 -0.2,0 -0.3,-0.1s-0.1,-0.3 -0.1,-0.4s0,-0.4 0,-0.8c-0.1,-0.2 -0.1,-0.4 -0.2,-0.6c-0.1,-0.1 -0.2,-0.3 -0.4,-0.4c-0.2,-0.1 -0.4,-0.2 -0.6,-0.3c0.2,-0.1 0.4,-0.2 0.6,-0.3c0.1,-0.1 0.2,-0.3 0.3,-0.4c0.1,-0.2 0.2,-0.4 0.2,-0.6c0.1,-0.4 0.1,-0.7 0.1,-0.9c0,-0.1 0,-0.2 0.1,-0.3c0.1,0 0.2,-0.1 0.3,-0.1c0.3,0 0.6,0 0.9,0l0,-0.9l-0.4,0c-0.4,0 -0.8,0 -1.2,0.1c-0.3,0.1 -0.6,0.2 -0.9,0.3c-0.2,0.1 -0.3,0.3 -0.4,0.5c-0.1,0.3 -0.1,0.7 -0.1,1c0,0.2 0,0.4 0,0.6s-0.1,0.3 -0.2,0.4c-0.1,0.1 -0.3,0.2 -0.4,0.2c-0.3,0.1 -0.5,0.1 -0.7,0.1z" class="st0"/>
  </g>
 </g>
</svg>