<svg width="26" height="26" xmlns="http://www.w3.org/2000/svg" xml:space="preserve" version="1.1">

 <title>icon_plugin</title>
 <g>
  <title>Layer 1</title>
  <path id="svg_1" enable-background="new" opacity="0.1" d="m3.6,0l18.8,0c2,0 3.6,1.6 3.6,3.6c0,0 0,0 0,0l0,18.8c0,2 -1.6,3.6 -3.6,3.6c0,0 0,0 0,0l-18.8,0c-2,0 -3.6,-1.6 -3.6,-3.6c0,0 0,0 0,0l0,-18.8c0,-2 1.6,-3.6 3.6,-3.6c0,0 0,0 0,0z" class="st0"/>
  <g id="Angle_brackets">
   <polygon id="svg_5" fill="#DDDDDD" points="13.1,16 13.1,16.7 14.4,17.3 13.1,18 13.1,18.7 14.9,17.6 14.9,17.1  " class="st2"/>
   <polygon id="svg_6" fill="#DDDDDD" points="11.1,17.6 12.9,18.7 12.9,18 11.7,17.3 12.9,16.7 12.9,16 11.1,17.1  " class="st2"/>
  </g>
  <g id="Curly_brackets">
   <path id="svg_7" fill="#DDDDDD" d="m13.8,15.3c0,0 0,0 0,0c-0.1,-0.1 -0.1,-0.1 -0.1,-0.1l0,-0.2c0,-0.1 0,-0.1 0,-0.2c0,0 0,-0.1 -0.1,-0.1l-0.2,-0.1c-0.1,0 -0.2,0 -0.3,0l-0.1,0l0,0.2l0.2,0l0.1,0c0,0 0,0 0,0.1c0,0.1 0,0.1 0,0.2c0,0 0,0.1 0,0.1l0.1,0.1l0.1,0.1l-0.1,0.1c0,0 -0.1,0.1 -0.1,0.1c0,0 0,0.1 0,0.1l0,0.2c0,0 0,0.1 0,0.1c0,0 0,0 -0.1,0l-0.2,0l0,0.2l0.1,0c0.1,0 0.2,0 0.3,0c0.1,0 0.1,0 0.2,-0.1c0,0 0.1,-0.1 0.1,-0.1c0,-0.1 0,-0.1 0,-0.2c0,-0.1 0,-0.1 0,-0.2c0,0 0,-0.1 0.1,-0.1c0.1,0 0.1,0 0.2,0l0,-0.2c-0.1,0 -0.1,0 -0.2,0z" class="st2"/>
   <path id="svg_8" fill="#DDDDDD" d="m12,15.3l0,0.2c0.1,0 0.1,0 0.2,0c0,0 0.1,0 0.1,0.1c0,0.1 0,0.1 0,0.2c0,0.1 0,0.1 0,0.2c0,0 0,0.1 0.1,0.1c0,0 0.1,0.1 0.2,0.1c0.1,0 0.2,0 0.3,0l0.1,0l0,-0.2l-0.2,0c0,0 0,0 -0.1,0c0,0 0,-0.1 0,-0.1l0,-0.2c0,0 0,-0.1 0,-0.1s0,-0.1 -0.1,-0.1l-0.1,-0.1l0.1,-0.1l0.1,-0.1c0,0 0,-0.1 0,-0.1c0,-0.1 0,-0.1 0,-0.2c0,0 0,0 0,-0.1l0.1,0l0.2,0l0,-0.2l-0.1,0c-0.1,0 -0.2,0 -0.3,0l-0.2,0.1c0,0 -0.1,0.1 -0.1,0.1c0,0.1 0,0.1 0,0.2l0,0.1c0,0 0,0.1 0,0.1c0,0 0,0 0,0c-0.2,0.1 -0.3,0.1 -0.3,0.1z" class="st2"/>
  </g>
 </g>
</svg>