<?xml version="1.0" encoding="utf-8"?>
<!-- Generator: Adobe Illustrator 21.0.0, SVG Export Plug-In . SVG Version: 6.00 Build 0)  -->
<svg version="1.1"
	 id="svg2" inkscape:version="0.48.4 r9939" sodipodi:docname="desktop_smartphone_tablet.svg" xmlns:cc="http://creativecommons.org/ns#" xmlns:dc="http://purl.org/dc/elements/1.1/" xmlns:inkscape="http://www.inkscape.org/namespaces/inkscape" xmlns:rdf="http://www.w3.org/1999/02/22-rdf-syntax-ns#" xmlns:sodipodi="http://sodipodi.sourceforge.net/DTD/sodipodi-0.dtd" xmlns:svg="http://www.w3.org/2000/svg"
	 xmlns="http://www.w3.org/2000/svg" xmlns:xlink="http://www.w3.org/1999/xlink" x="0px" y="0px" viewBox="0 0 670.2 388.8"
	 style="enable-background:new 0 0 670.2 388.8;" xml:space="preserve">
<style type="text/css">
	.st0{stroke:#CCCCCC;stroke-width:2;stroke-miterlimit:10;}
	.st1{fill:#AAAAAA;}
	.st2{fill:#212121;}
	.st3{fill:#CCCCCC;}
	.st4{fill:#E2E2E2;}
	.st5{fill:#A0A0A0;}
</style>
<sodipodi:namedview  bordercolor="#666666" borderopacity="1.0" id="base" inkscape:current-layer="layer1" inkscape:cx="573.40469" inkscape:cy="515.15602" inkscape:document-units="px" inkscape:guide-bbox="true" inkscape:pageopacity="0.0" inkscape:pageshadow="2" inkscape:window-height="961" inkscape:window-maximized="1" inkscape:window-width="1280" inkscape:window-x="-8" inkscape:window-y="-8" inkscape:zoom="0.69827687" pagecolor="#ffffff" showgrid="false" showguides="true">
	</sodipodi:namedview>
<g id="layer1" inkscape:groupmode="layer" inkscape:label="Livello 1">
	<g id="g4284">
		<path class="st0" d="M621.5,365.6H48.8V15c0-8.2,6.8-15,15-15h542.7c8.2,0,15,6.8,15,15V365.6z"/>
		<path class="st1" d="M637.3,386.6H40.8c-0.8,0-1.5-0.1-2.3-0.3l-25.3-6.1l642.5,0l-15,5.8C639.6,386.4,638.4,386.6,637.3,386.6z"
			/>
		<rect x="49.7" y="354.1" class="st2" width="570.7" height="11.5"/>
		<path class="st3" d="M655.8,380.2H14.4c-0.4,0-0.8-0.2-0.9-0.6l-5.4-12.9c-0.2-0.6,0.2-1.2,0.9-1.2h652.1c0.7,0,1.1,0.6,0.9,1.2
			l-5.4,12.9C656.6,380,656.2,380.2,655.8,380.2z"/>
		<polygon class="st4" points="656.2,380.1 14,380.1 13.4,379.3 656.8,379.3 		"/>
	</g>
</g>
<path class="st5" d="M601.4,381.3"/>
</svg>
