<?xml version="1.0" encoding="utf-8"?>
<!-- Generator: Adobe Illustrator 21.0.0, SVG Export Plug-In . SVG Version: 6.00 Build 0)  -->
<svg version="1.1" id="Lager_1" xmlns="http://www.w3.org/2000/svg" xmlns:xlink="http://www.w3.org/1999/xlink" x="0px" y="0px"
	 viewBox="0 0 48 48" style="enable-background:new 0 0 48 48;" xml:space="preserve">
<path d="M42,46c-2.1,0-4.1-0.5-6-1.5l0,0c-3.8,2-8.2,2-12,0c-3.8,2-8.2,2-12,0c-1.9,1-3.9,1.5-6,1.5H4v-4h2c2.1,0,4.2-0.7,6-2
	c3.7,2.6,8.3,2.6,12,0c3.7,2.6,8.3,2.6,12,0c1.8,1.3,3.9,2,6,2h2v4H42z M34,3c-2.2,0-4,1.8-4,4s1.8,4,4,4s4-1.8,4-4S36.2,3,34,3z
	 M28.9,17l-4.5,3l7.6,6v7.7c1.1,0.8,2.1,1.6,3,2.3c-1.4,1.2-3.1,2-5,2c-2.4,0-4.5-1.3-6-3c-1.5,1.7-3.6,3-6,3
	c-0.7,0-1.3-0.1-1.9-0.3C10.4,33.8,6,29.4,6,26.6C6,24.5,8,24,9.7,24c2,0,4.6,0.6,7.4,1.7L16,19.5c-0.2-1.3,0.4-2.8,1.6-3.6l4.3-2.9
	l-4-0.7l-5.6,3.9L10,12.8L17,8l11.1,2.1c0.9,0.2,1.9,0.7,2.4,1.8l1.8,3.1c1.7,3,5,5.1,8.7,5.1v4C35.8,24,31.3,21.2,28.9,17z
	 M20.6,22.2l0.9,5.3c1.8,0.8,5,2.5,6.5,3.5v-3L20.6,22.2z"/>
</svg>
