<svg width="94" height="44" xmlns="http://www.w3.org/2000/svg" xml:space="preserve" version="1.1">
 <g id="Layer_1">
  <g id="svg_8">
   <g id="svg_8">
    <path fill="#ffffff" id="svg_1" d="m3.6,6.86668l18.8,0c2,0 3.6,1.6 3.6,3.6l0,18.8c0,2 -1.6,3.6 -3.6,3.6l-18.8,0c-2,0 -3.6,-1.6 -3.6,-3.6l0,-18.8c0,-2 1.6,-3.6 3.6,-3.6z"/>
    <g id="svg_4">
     <polygon id="svg_2" fill="#000000" points="13.5,16.666671752929688 13.5,19.866683959960938 19.29998779296875,22.966690063476562 13.5,26.166671752929688 13.5,29.366683959960938 21.79998779296875,24.366683959960938 21.79998779296875,21.666671752929688 " class="st0"/>
     <polygon id="svg_3" fill="#000000" points="4.29998779296875,24.366683959960938 12.600006103515625,29.366683959960938 12.600006103515625,26.166671752929688 6.899993896484375,22.966690063476562 12.600006103515625,19.866683959960938 12.600006103515625,16.666671752929688 4.29998779296875,21.666671752929688 " class="st0"/>
    </g>
    <g id="svg_7">
     <path id="svg_5" fill="#000000" d="m17.1,13.46668c-0.1,0 -0.3,-0.1 -0.4,-0.2c-0.1,-0.1 -0.2,-0.2 -0.2,-0.4s0,-0.4 0,-0.6c0,-0.3 0,-0.7 -0.1,-1c-0.1,-0.2 -0.2,-0.4 -0.4,-0.5c-0.3,-0.1 -0.6,-0.2 -0.9,-0.3c-0.4,-0.1 -0.8,-0.1 -1.2,-0.1l-0.4,0l0,0.9c0.3,0 0.6,0 0.9,0c0.1,0 0.2,0.1 0.3,0.1c0.1,0.1 0.1,0.2 0.1,0.3c0,0.2 0,0.5 0.1,0.9c0,0.2 0.1,0.4 0.2,0.6c0.1,0.1 0.2,0.3 0.3,0.4c0.2,0.1 0.4,0.2 0.6,0.3c-0.2,0.1 -0.4,0.2 -0.6,0.3c-0.2,0.1 -0.3,0.3 -0.4,0.4c-0.1,0.2 -0.1,0.4 -0.2,0.6c0,0.4 0,0.7 0,0.8s0,0.3 -0.1,0.4c-0.1,0.1 -0.2,0.1 -0.3,0.1c-0.3,0 -0.6,0.1 -0.9,0.1l0,0.9l0.3,0c0.4,0 0.9,0 1.3,-0.1c0.3,0 0.5,-0.1 0.8,-0.3c0.2,-0.1 0.3,-0.3 0.4,-0.5c0.1,-0.3 0.1,-0.6 0.1,-0.8c0,-0.3 0,-0.6 0.1,-0.9c0.1,-0.2 0.2,-0.3 0.4,-0.4c0.3,-0.1 0.6,-0.2 0.9,-0.2l0,-0.7c-0.2,0 -0.4,0 -0.7,-0.1z" class="st0"/>
     <path id="svg_6" fill="#000000" d="m8.3,13.56668l0,0.7c0.3,0 0.6,0.1 0.9,0.2c0.2,0.1 0.3,0.2 0.4,0.4c0.1,0.3 0.1,0.6 0.1,0.9c0,0.2 0,0.5 0.1,0.8c0.1,0.2 0.2,0.4 0.4,0.5c0.3,0.2 0.5,0.3 0.8,0.3c0.4,0.1 0.9,0.1 1.3,0.1l0.3,0l0,-0.9c-0.3,0 -0.6,-0.1 -0.9,-0.1c-0.1,0 -0.2,0 -0.3,-0.1s-0.1,-0.3 -0.1,-0.4s0,-0.4 0,-0.8c-0.1,-0.2 -0.1,-0.4 -0.2,-0.6c-0.1,-0.1 -0.2,-0.3 -0.4,-0.4c-0.2,-0.1 -0.4,-0.2 -0.6,-0.3c0.2,-0.1 0.4,-0.2 0.6,-0.3c0.1,-0.1 0.2,-0.3 0.3,-0.4c0.1,-0.2 0.2,-0.4 0.2,-0.6c0.1,-0.4 0.1,-0.7 0.1,-0.9c0,-0.1 0,-0.2 0.1,-0.3c0.1,0 0.2,-0.1 0.3,-0.1c0.3,0 0.6,0 0.9,0l0,-0.9l-0.4,0c-0.4,0 -0.8,0 -1.2,0.1c-0.3,0.1 -0.6,0.2 -0.9,0.3c-0.2,0.1 -0.3,0.3 -0.4,0.5c-0.1,0.3 -0.1,0.7 -0.1,1c0,0.2 0,0.4 0,0.6s-0.1,0.3 -0.2,0.4c-0.1,0.1 -0.3,0.2 -0.4,0.2c-0.3,0.1 -0.5,0.1 -0.7,0.1z" class="st0"/>
    </g>
   </g>
  </g>
  <text stroke-width="0" font-weight="normal" xml:space="preserve" text-anchor="start" font-family="'Heebo'" font-size="30" id="svg_10" y="31.5" x="30.12066" stroke="#000" fill="#ffffff">front</text>
 </g>
</svg>