<?xml version="1.0" encoding="utf-8"?>
<svg version="1.1" id="Icon" xmlns="http://www.w3.org/2000/svg" xmlns:xlink="http://www.w3.org/1999/xlink" x="0px" y="0px"
	 viewBox="0 0 26 26" style="enable-background:new 0 0 26 26;" xml:space="preserve">
<style type="text/css">
	.st0{fill:#FFFFFF;}
</style>
<path d="M3.6,0h18.8c2,0,3.6,1.6,3.6,3.6v18.8c0,2-1.6,3.6-3.6,3.6H3.6c-2,0-3.6-1.6-3.6-3.6V3.6C0,1.6,1.6,0,3.6,0z"/>
<g id="Angle_brackets">
	<polygon class="st0" points="13.5,9.8 13.5,13 19.3,16.1 13.5,19.3 13.5,22.5 21.8,17.5 21.8,14.8 	"/>
	<polygon class="st0" points="4.3,17.5 12.6,22.5 12.6,19.3 6.9,16.1 12.6,13 12.6,9.8 4.3,14.8 	"/>
</g>
<g id="Curly_brackets">
	<path class="st0" d="M17.1,6.6c-0.1,0-0.3-0.1-0.4-0.2c-0.1-0.1-0.2-0.2-0.2-0.4s0-0.4,0-0.6c0-0.3,0-0.7-0.1-1
		C16.3,4.2,16.2,4,16,3.9c-0.3-0.1-0.6-0.2-0.9-0.3c-0.4-0.1-0.8-0.1-1.2-0.1h-0.4v0.9c0.3,0,0.6,0,0.9,0c0.1,0,0.2,0.1,0.3,0.1
		c0.1,0.1,0.1,0.2,0.1,0.3c0,0.2,0,0.5,0.1,0.9c0,0.2,0.1,0.4,0.2,0.6c0.1,0.1,0.2,0.3,0.3,0.4C15.6,6.8,15.8,6.9,16,7
		c-0.2,0.1-0.4,0.2-0.6,0.3c-0.2,0.1-0.3,0.3-0.4,0.4c-0.1,0.2-0.1,0.4-0.2,0.6c0,0.4,0,0.7,0,0.8s0,0.3-0.1,0.4
		c-0.1,0.1-0.2,0.1-0.3,0.1c-0.3,0-0.6,0.1-0.9,0.1v0.9h0.3c0.4,0,0.9,0,1.3-0.1c0.3,0,0.5-0.1,0.8-0.3c0.2-0.1,0.3-0.3,0.4-0.5
		c0.1-0.3,0.1-0.6,0.1-0.8c0-0.3,0-0.6,0.1-0.9c0.1-0.2,0.2-0.3,0.4-0.4c0.3-0.1,0.6-0.2,0.9-0.2V6.7C17.6,6.7,17.4,6.7,17.1,6.6z"
		/>
	<path class="st0" d="M8.3,6.7v0.7c0.3,0,0.6,0.1,0.9,0.2C9.4,7.7,9.5,7.8,9.6,8c0.1,0.3,0.1,0.6,0.1,0.9c0,0.2,0,0.5,0.1,0.8
		c0.1,0.2,0.2,0.4,0.4,0.5c0.3,0.2,0.5,0.3,0.8,0.3c0.4,0.1,0.9,0.1,1.3,0.1h0.3V9.7c-0.3,0-0.6-0.1-0.9-0.1c-0.1,0-0.2,0-0.3-0.1
		s-0.1-0.3-0.1-0.4s0-0.4,0-0.8c-0.1-0.2-0.1-0.4-0.2-0.6c-0.1-0.1-0.2-0.3-0.4-0.4c-0.2-0.1-0.4-0.2-0.6-0.3
		c0.2-0.1,0.4-0.2,0.6-0.3c0.1-0.1,0.2-0.3,0.3-0.4c0.1-0.2,0.2-0.4,0.2-0.6c0.1-0.4,0.1-0.7,0.1-0.9c0-0.1,0-0.2,0.1-0.3
		c0.1,0,0.2-0.1,0.3-0.1c0.3,0,0.6,0,0.9,0V3.5h-0.4c-0.4,0-0.8,0-1.2,0.1c-0.3,0.1-0.6,0.2-0.9,0.3C9.9,4,9.8,4.2,9.7,4.4
		c-0.1,0.3-0.1,0.7-0.1,1c0,0.2,0,0.4,0,0.6S9.5,6.3,9.4,6.4C9.3,6.5,9.1,6.6,9,6.6C8.7,6.7,8.5,6.7,8.3,6.7z"/>
</g>
</svg>
