<?xml version="1.0" encoding="utf-8"?>
<!-- Generator: Adobe Illustrator 21.0.0, SVG Export Plug-In . SVG Version: 6.00 Build 0)  -->
<svg version="1.1" id="Icon" xmlns="http://www.w3.org/2000/svg" xmlns:xlink="http://www.w3.org/1999/xlink" x="0px" y="0px"
	 viewBox="0 0 26 26" style="enable-background:new 0 0 26 26;" xml:space="preserve">
<style type="text/css">
	.st0{opacity:0.1;enable-background:new    ;}
	.st1{opacity:0.5;}
	.st2{fill:#DDDDDD;}
</style>
<path class="st0" d="M3.6,0h18.8c2,0,3.6,1.6,3.6,3.6c0,0,0,0,0,0v18.8c0,2-1.6,3.6-3.6,3.6c0,0,0,0,0,0H3.6c-2,0-3.6-1.6-3.6-3.6
	c0,0,0,0,0,0V3.6C0,1.6,1.6,0,3.6,0C3.6,0,3.6,0,3.6,0z"/>
<path class="st1" d="M14.6,7.4h1.2c0.2,0,0.4,0.2,0.4,0.4v0v4.8l0,0h-1.9l0,0V7.8C14.2,7.6,14.4,7.4,14.6,7.4
	C14.6,7.4,14.6,7.4,14.6,7.4z"/>
<title>icon_plugin</title>
<path class="st1" d="M10.3,7.4h1.2c0.2,0,0.4,0.2,0.4,0.4v4.8l0,0H9.9l0,0V7.8C9.9,7.6,10.1,7.4,10.3,7.4
	C10.3,7.4,10.3,7.4,10.3,7.4z"/>
<path class="st1" d="M6.8,12.6h12.4l0,0v5.2c0,1.7-1.3,3-3,3H9.8c-1.7,0-3-1.3-3-3C6.8,17.8,6.8,12.6,6.8,12.6z"/>
<g id="Angle_brackets">
	<polygon class="st2" points="13.1,16 13.1,16.7 14.4,17.3 13.1,18 13.1,18.7 14.9,17.6 14.9,17.1 	"/>
	<polygon class="st2" points="11.1,17.6 12.9,18.7 12.9,18 11.7,17.3 12.9,16.7 12.9,16 11.1,17.1 	"/>
</g>
<g id="Curly_brackets">
	<path class="st2" d="M13.8,15.3C13.8,15.3,13.8,15.3,13.8,15.3c-0.1-0.1-0.1-0.1-0.1-0.1V15c0-0.1,0-0.1,0-0.2c0,0,0-0.1-0.1-0.1
		l-0.2-0.1c-0.1,0-0.2,0-0.3,0h-0.1v0.2h0.2h0.1c0,0,0,0,0,0.1c0,0.1,0,0.1,0,0.2c0,0,0,0.1,0,0.1l0.1,0.1l0.1,0.1l-0.1,0.1
		c0,0-0.1,0.1-0.1,0.1c0,0,0,0.1,0,0.1v0.2c0,0,0,0.1,0,0.1c0,0,0,0-0.1,0h-0.2v0.2h0.1c0.1,0,0.2,0,0.3,0c0.1,0,0.1,0,0.2-0.1
		c0,0,0.1-0.1,0.1-0.1c0-0.1,0-0.1,0-0.2c0-0.1,0-0.1,0-0.2c0,0,0-0.1,0.1-0.1c0.1,0,0.1,0,0.2,0v-0.2
		C13.9,15.3,13.9,15.3,13.8,15.3z"/>
	<path class="st2" d="M12,15.3v0.2c0.1,0,0.1,0,0.2,0c0,0,0.1,0,0.1,0.1c0,0.1,0,0.1,0,0.2c0,0.1,0,0.1,0,0.2c0,0,0,0.1,0.1,0.1
		c0,0,0.1,0.1,0.2,0.1c0.1,0,0.2,0,0.3,0h0.1v-0.2h-0.2c0,0,0,0-0.1,0c0,0,0-0.1,0-0.1v-0.2c0,0,0-0.1,0-0.1s0-0.1-0.1-0.1l-0.1-0.1
		l0.1-0.1l0.1-0.1c0,0,0-0.1,0-0.1c0-0.1,0-0.1,0-0.2c0,0,0,0,0-0.1h0.1h0.2v-0.2h-0.1c-0.1,0-0.2,0-0.3,0l-0.2,0.1
		c0,0-0.1,0.1-0.1,0.1c0,0.1,0,0.1,0,0.2v0.1c0,0,0,0.1,0,0.1c0,0,0,0,0,0C12.1,15.3,12,15.3,12,15.3z"/>
</g>
</svg>
