<?xml version="1.0" encoding="utf-8"?>
<!-- Generator: Adobe Illustrator 21.0.0, SVG Export Plug-In . SVG Version: 6.00 Build 0)  -->
<svg version="1.1" id="Icon" xmlns="http://www.w3.org/2000/svg" xmlns:xlink="http://www.w3.org/1999/xlink" x="0px" y="0px"
	 viewBox="0 0 26 26" style="enable-background:new 0 0 26 26;" xml:space="preserve">
<style type="text/css">
	.st0{fill:#FFFFFF;}
</style>
<rect width="26" height="26"/>
<title>icon_black</title>
<g id="Angle_brackets">
	<polygon class="st0" points="13.3,9.9 13.3,13.1 19.1,16.2 13.3,19.4 13.3,22.6 21.6,17.6 21.6,14.9 	"/>
	<polygon class="st0" points="4.1,17.6 12.4,22.6 12.4,19.4 6.7,16.2 12.4,13.1 12.4,9.9 4.1,14.9 	"/>
</g>
<g id="Curly_brackets">
	<path class="st0" d="M16.9,6.6c-0.1,0-0.3-0.1-0.4-0.2c-0.1-0.1-0.2-0.2-0.2-0.4c0-0.2,0-0.4,0-0.6c0-0.3,0-0.7-0.1-1
		c-0.1-0.2-0.2-0.4-0.4-0.5c-0.3-0.1-0.6-0.2-0.9-0.3c-0.4-0.1-0.8-0.1-1.2-0.1h-0.4v0.9c0.3,0,0.6,0,0.9,0c0.1,0,0.2,0.1,0.3,0.1
		c0.1,0.1,0.1,0.2,0.1,0.3c0,0.2,0,0.5,0.1,0.9c0,0.2,0.1,0.4,0.2,0.6c0.1,0.1,0.2,0.3,0.3,0.4C15.3,6.9,15.5,7,15.7,7
		c-0.2,0.1-0.4,0.2-0.6,0.3c-0.2,0.1-0.3,0.3-0.4,0.4c-0.1,0.2-0.1,0.4-0.2,0.6c0,0.4,0,0.7,0,0.8c0,0.1,0,0.3-0.1,0.4
		c-0.1,0.1-0.2,0.1-0.3,0.1c-0.3,0-0.6,0.1-0.9,0.1v0.9h0.3c0.4,0,0.9,0,1.3-0.1c0.3,0,0.5-0.1,0.8-0.3c0.2-0.1,0.3-0.3,0.4-0.5
		c0.1-0.3,0.1-0.6,0.1-0.8c0-0.3,0-0.6,0.1-0.9c0.1-0.2,0.2-0.3,0.4-0.4c0.3-0.1,0.6-0.2,0.9-0.2V6.6C17.3,6.6,17.1,6.6,16.9,6.6z"
		/>
	<path class="st0" d="M10.9,3.6c-0.3,0-0.6,0.1-0.9,0.3C9.9,4,9.7,4.1,9.6,4.3C9.5,4.7,9.5,5,9.5,5.3c0,0.2,0,0.4-0.1,0.7
		c0,0.2-0.1,0.3-0.2,0.4C9.1,6.5,9,6.6,8.8,6.6C8.6,6.7,8.4,6.7,8.2,6.7v0.9c0.3,0,0.6,0,0.8,0.1C9.2,7.8,9.3,8,9.4,8.2
		c0.1,0.3,0.1,0.6,0.1,0.9c0,0.3,0,0.6,0.1,0.9c0.1,0.2,0.2,0.4,0.4,0.5c0.2,0.1,0.5,0.2,0.8,0.3c0.4,0.1,0.9,0.1,1.3,0.1h0.3V9.8
		c-0.3,0-0.6,0-0.9-0.1c-0.1,0-0.2-0.1-0.3-0.1c-0.1-0.1-0.1-0.2-0.1-0.4c0-0.1,0-0.4,0-0.8c0-0.2-0.1-0.4-0.2-0.7
		c-0.1-0.2-0.2-0.3-0.4-0.4c-0.2-0.1-0.4-0.2-0.6-0.3c0.2-0.1,0.4-0.2,0.6-0.3c0.1-0.1,0.3-0.2,0.3-0.4c0.1-0.2,0.1-0.4,0.2-0.6
		c0-0.4,0.1-0.7,0.1-0.9c0-0.1,0-0.2,0.1-0.3c0.1-0.1,0.2-0.1,0.3-0.1c0.3,0,0.6,0,0.9,0V3.6h-0.3C11.7,3.5,11.3,3.5,10.9,3.6z"/>
</g>
</svg>
