<svg id="Icon" xmlns="http://www.w3.org/2000/svg" viewBox="0 0 26 26"><title>icon_black</title><rect width="26" height="26" rx="3.62" ry="3.62"/><g id="Angle_brackets" data-name="Angle brackets"><polygon points="13.29 9.88 13.29 13.1 19.09 16.23 13.29 19.4 13.29 22.65 21.61 17.62 21.61 14.87 13.29 9.88" style="fill:#fff"/><polygon points="4.14 17.62 12.44 22.64 12.44 19.39 6.65 16.2 12.44 13.12 12.44 9.85 4.14 14.85 4.14 17.62" style="fill:#fff"/></g><g id="Curly_brackets" data-name="Curly brackets"><path d="M16.89,6.55a1,1,0,0,1-.4-.23.82.82,0,0,1-.23-.4,2.68,2.68,0,0,1,0-.63,3.13,3.13,0,0,0-.11-1,.93.93,0,0,0-.41-.46,2.65,2.65,0,0,0-.86-.28,7.65,7.65,0,0,0-1.2-.07H13.3v.9a5.07,5.07,0,0,1,.89,0,.59.59,0,0,1,.29.14.46.46,0,0,1,.09.33q0,.24.06.9a1.47,1.47,0,0,0,.16.6,1.22,1.22,0,0,0,.33.38,2.77,2.77,0,0,0,.62.31,2.31,2.31,0,0,0-.6.3,1.17,1.17,0,0,0-.36.42,1.82,1.82,0,0,0-.16.65q0,.62,0,.8a.47.47,0,0,1-.1.35.66.66,0,0,1-.3.15,4.66,4.66,0,0,1-.88.05v.9h.33a7.88,7.88,0,0,0,1.3-.08,2.21,2.21,0,0,0,.76-.27,1,1,0,0,0,.42-.46A2.6,2.6,0,0,0,16.21,9a2.5,2.5,0,0,1,.1-.9.84.84,0,0,1,.42-.43,2.31,2.31,0,0,1,.85-.15v-.9A3,3,0,0,1,16.89,6.55Z" transform="translate(0 0)" style="fill:#fff"/><path d="M10.9,3.59a2.64,2.64,0,0,0-.86.28.93.93,0,0,0-.41.46,3.13,3.13,0,0,0-.11,1A2.65,2.65,0,0,1,9.47,6a.82.82,0,0,1-.23.4,1,1,0,0,1-.4.23,3,3,0,0,1-.69.08v.9A2.33,2.33,0,0,1,9,7.73a.84.84,0,0,1,.42.43,2.5,2.5,0,0,1,.1.9,2.59,2.59,0,0,0,.11.87.94.94,0,0,0,.42.46,2.21,2.21,0,0,0,.76.27,7.9,7.9,0,0,0,1.3.08h.33v-.9a4.63,4.63,0,0,1-.88-.05.66.66,0,0,1-.3-.15.48.48,0,0,1-.1-.35q0-.17,0-.8a1.81,1.81,0,0,0-.16-.65,1.17,1.17,0,0,0-.36-.42,2.31,2.31,0,0,0-.61-.3,2.76,2.76,0,0,0,.63-.31,1.22,1.22,0,0,0,.34-.38,1.47,1.47,0,0,0,.16-.6q.06-.66.06-.9a.46.46,0,0,1,.09-.33.59.59,0,0,1,.29-.14,5.09,5.09,0,0,1,.89,0v-.9h-.33A7.62,7.62,0,0,0,10.9,3.59Z" transform="translate(0 0)" style="fill:#fff"/></g></svg>