<?xml version="1.0" encoding="utf-8"?>
<!-- Generator: Adobe Illustrator 21.0.0, SVG Export Plug-In . SVG Version: 6.00 Build 0)  -->
<svg version="1.1" id="Icon" xmlns="http://www.w3.org/2000/svg" xmlns:xlink="http://www.w3.org/1999/xlink" x="0px" y="0px"
	 viewBox="0 0 26 26" style="enable-background:new 0 0 26 26;" xml:space="preserve">
<style type="text/css">
	.st0{fill:#FFFFFF;}
</style>
<title>icon_black</title>
<path d="M3.6,0h18.8c2,0,3.6,1.6,3.6,3.6v18.8c0,2-1.6,3.6-3.6,3.6H3.6c-2,0-3.6-1.6-3.6-3.6V3.6C0,1.6,1.6,0,3.6,0z"/>
<g id="Angle_brackets">
	<polygon class="st0" points="13.3,9.9 13.3,13.1 19.1,16.2 13.3,19.4 13.3,22.6 21.6,17.6 21.6,14.9 	"/>
	<polygon class="st0" points="4.1,17.6 12.4,22.6 12.4,19.4 6.7,16.2 12.4,13.1 12.4,9.9 4.1,14.9 	"/>
</g>
<g id="Curly_brackets">
	<path class="st0" d="M16.9,6.7c-0.1,0-0.3-0.1-0.4-0.2s-0.2-0.2-0.2-0.4c0-0.2,0-0.4,0-0.6c0-0.3,0-0.7-0.1-1
		C16.1,4.3,16,4.1,15.8,4c-0.3-0.1-0.6-0.2-0.9-0.3c-0.4-0.1-0.8-0.1-1.2-0.1h-0.4v0.9c0.3,0,0.6,0,0.9,0c0.1,0,0.2,0.1,0.3,0.1
		c0.1,0.1,0.1,0.2,0.1,0.3c0,0.2,0,0.5,0.1,0.9c0,0.2,0.1,0.4,0.2,0.6c0.1,0.1,0.2,0.3,0.3,0.4c0.2,0.1,0.4,0.2,0.6,0.3
		c-0.2,0.1-0.4,0.2-0.6,0.3c-0.2,0.1-0.3,0.3-0.4,0.4c-0.1,0.2-0.1,0.4-0.2,0.6c0,0.4,0,0.7,0,0.8s0,0.3-0.1,0.4
		c-0.1,0.1-0.2,0.1-0.3,0.1c-0.3,0-0.6,0.1-0.9,0.1v0.9h0.3c0.4,0,0.9,0,1.3-0.1c0.3,0,0.5-0.1,0.8-0.3c0.2-0.1,0.3-0.3,0.4-0.5
		c0.1-0.3,0.1-0.6,0.1-0.8c0-0.3,0-0.6,0.1-0.9c0.1-0.2,0.2-0.3,0.4-0.4c0.3-0.1,0.6-0.2,0.9-0.2V6.8C17.4,6.8,17.2,6.8,16.9,6.7z"
		/>
	<path class="st0" d="M8.1,6.8v0.7c0.3,0,0.6,0.1,0.9,0.2c0.2,0.1,0.3,0.2,0.4,0.4C9.5,8.4,9.5,8.7,9.5,9c0,0.2,0,0.5,0.1,0.8
		c0.1,0.2,0.2,0.4,0.4,0.5c0.3,0.2,0.5,0.3,0.8,0.3c0.4,0.1,0.9,0.1,1.3,0.1h0.3V9.8c-0.3,0-0.6-0.1-0.9-0.1c-0.1,0-0.2,0-0.3-0.1
		c-0.1-0.1-0.1-0.3-0.1-0.4s0-0.4,0-0.8C11,8.2,11,8,10.9,7.8c-0.1-0.1-0.2-0.3-0.4-0.4c-0.2-0.1-0.4-0.2-0.6-0.3
		c0.2-0.1,0.4-0.2,0.6-0.3c0.1-0.1,0.2-0.3,0.3-0.4C10.9,6.2,11,6,11,5.8c0.1-0.4,0.1-0.7,0.1-0.9c0-0.1,0-0.2,0.1-0.3
		c0.1,0,0.2-0.1,0.3-0.1c0.3,0,0.6,0,0.9,0V3.6H12c-0.4,0-0.8,0-1.2,0.1C10.5,3.8,10.2,3.9,9.9,4C9.7,4.1,9.6,4.3,9.5,4.5
		c-0.1,0.3-0.1,0.7-0.1,1c0,0.2,0,0.4,0,0.6c0,0.2-0.1,0.3-0.2,0.4S8.9,6.7,8.8,6.7C8.5,6.8,8.3,6.8,8.1,6.8z"/>
</g>
</svg>
