<?xml version="1.0" encoding="utf-8"?>
<!-- Generator: Adobe Illustrator 21.0.0, SVG Export Plug-In . SVG Version: 6.00 Build 0)  -->
<svg version="1.1" id="Icon" xmlns="http://www.w3.org/2000/svg" xmlns:xlink="http://www.w3.org/1999/xlink" x="0px" y="0px"
	 viewBox="0 0 26 26" style="enable-background:new 0 0 26 26;" xml:space="preserve">
<style type="text/css">
	.st0{fill:#FFFFFF;}
</style>
<rect width="26" height="26"/>
<title>icon_black</title>
<g id="Angle_brackets">
	<polygon class="st0" points="13.4,10.1 13.4,13 18.5,15.8 13.4,18.6 13.4,21.5 20.8,17 20.8,14.6 	"/>
	<polygon class="st0" points="5.2,17 12.6,21.5 12.6,18.6 7.5,15.8 12.6,13 12.6,10.1 5.2,14.6 	"/>
</g>
<g id="Curly_brackets">
	<path class="st0" d="M16.5,7.2c-0.1,0-0.3-0.1-0.4-0.2C16.1,6.9,16,6.8,16,6.7c0-0.2,0-0.4,0-0.6c0-0.3,0-0.6-0.1-0.9
		c-0.1-0.2-0.2-0.3-0.4-0.4c-0.2-0.1-0.5-0.2-0.8-0.2c-0.4,0-0.7-0.1-1.1-0.1h-0.3v0.8c0.3,0,0.5,0,0.8,0c0.1,0,0.2,0.1,0.3,0.1
		c0.1,0.1,0.1,0.2,0.1,0.3c0,0.1,0,0.4,0.1,0.8c0,0.2,0.1,0.4,0.1,0.5c0.1,0.1,0.2,0.2,0.3,0.3c0.2,0.1,0.4,0.2,0.6,0.3
		C15.3,7.7,15.1,7.8,15,8c-0.1,0.1-0.2,0.2-0.3,0.4c-0.1,0.2-0.1,0.4-0.1,0.6c0,0.4,0,0.6,0,0.7c0,0.1,0,0.2-0.1,0.3
		c-0.1,0.1-0.2,0.1-0.3,0.1c-0.3,0-0.5,0.1-0.8,0v0.8h0.3c0.4,0,0.8,0,1.2-0.1c0.2,0,0.5-0.1,0.7-0.2c0.2-0.1,0.3-0.2,0.4-0.4
		c0.1-0.2,0.1-0.5,0.1-0.8c0-0.3,0-0.5,0.1-0.8c0.1-0.2,0.2-0.3,0.4-0.4c0.2-0.1,0.5-0.1,0.8-0.1V7.3C16.9,7.3,16.7,7.3,16.5,7.2z"
		/>
	<path class="st0" d="M11.2,4.6c-0.3,0-0.5,0.1-0.8,0.2c-0.2,0.1-0.3,0.2-0.4,0.4C10,5.5,10,5.8,10,6.1c0,0.2,0,0.4,0,0.6
		c0,0.1-0.1,0.3-0.2,0.4C9.7,7.1,9.5,7.2,9.4,7.3C9.2,7.3,9,7.3,8.8,7.3v0.8c0.3,0,0.5,0,0.8,0.1c0.2,0.1,0.3,0.2,0.4,0.4
		C10,8.9,10,9.1,10,9.4c0,0.3,0,0.5,0.1,0.8c0.1,0.2,0.2,0.3,0.4,0.4c0.2,0.1,0.4,0.2,0.7,0.2c0.4,0.1,0.8,0.1,1.2,0.1h0.3v-0.8
		c-0.3,0-0.5,0-0.8,0c-0.1,0-0.2-0.1-0.3-0.1c-0.1-0.1-0.1-0.2-0.1-0.3c0-0.1,0-0.3,0-0.7c0-0.2-0.1-0.4-0.1-0.6
		C11.3,8.2,11.1,8.1,11,8c-0.2-0.1-0.3-0.2-0.5-0.3c0.2-0.1,0.4-0.2,0.6-0.3c0.1-0.1,0.2-0.2,0.3-0.3c0.1-0.2,0.1-0.3,0.1-0.5
		c0-0.4,0.1-0.7,0.1-0.8c0-0.1,0-0.2,0.1-0.3c0.1-0.1,0.2-0.1,0.3-0.1c0.3,0,0.5,0,0.8,0V4.5h-0.3C12,4.5,11.6,4.5,11.2,4.6z"/>
</g>
</svg>
