<?xml version="1.0" encoding="utf-8"?>
<!-- Generator: Adobe Illustrator 21.0.0, SVG Export Plug-In . SVG Version: 6.00 Build 0)  -->
<svg version="1.1" id="a2a78cae-10a9-444f-b979-915660fd0031"
	 xmlns="http://www.w3.org/2000/svg" xmlns:xlink="http://www.w3.org/1999/xlink" x="0px" y="0px" viewBox="0 0 742.4 542.8"
	 style="enable-background:new 0 0 742.4 542.8;" xml:space="preserve">
<style type="text/css">
	.st0{fill:#3F3D56;}
	.st1{fill:#FF6584;}
	.st2{fill:#D0CDE1;}
	.st3{fill:#FFFFFF;}
	.st4{fill:#2F2E41;}
	.st5{fill:#FFB8B8;}
	.st6{fill:#CCCCCC;}
	.st7{fill:#E6E6E6;}
	.st8{fill:#999999;}
</style>
<rect x="44.3" y="332" width="141.4" height="141.4"/>
<rect x="137.4" y="512.8" class="st0" width="420" height="2"/>
<path class="st0" d="M230,515.2H0V290.1h230V515.2z M1.4,513.6h227.3v-222H1.4V513.6z"/>
<path class="st0" d="M630,378c-62,0-112.4-50.5-112.4-112.4S568.1,153.2,630,153.2s112.4,50.5,112.4,112.4S692,378,630,378z
	 M630,154.8c-61.1,0-110.8,49.7-110.8,110.8S568.9,376.4,630,376.4s110.8-49.7,110.8-110.8S691.1,154.8,630,154.8L630,154.8z"/>
<circle cx="630" cy="265.6" r="54.1"/>
<rect x="499.3" y="77.2" transform="matrix(0.866 -0.5 0.5 0.866 21.6095 271.5515)" class="st1" width="36.5" height="36.5"/>
<rect x="18.2" y="118.1" transform="matrix(0.866 -0.5 0.5 0.866 -63.2981 36.4824)" class="st0" width="36.5" height="36.5"/>
<rect x="461.2" y="422.2" transform="matrix(0.866 -0.5 0.5 0.866 -155.9949 298.7245)" class="st2" width="36.5" height="36.5"/>
<rect x="99.2" y="386.8" class="st3" width="31.7" height="31.7"/>
<circle class="st3" cx="630" cy="265.6" r="13.3"/>
<polygon class="st4" points="396.3,111.6 334.9,113.2 326.6,38.3 396.3,38.3 "/>
<path class="st4" d="M331.3,208.6l-22.4,159c0,0-19.3,56.5-20.9,84l-6,39.7l26.8,6.1l28.5-111.6l38.9-100.7l-4.5,116.1l-9,94.7
	l26.8,4.6L406,379.9l17.9-88.7c0,0,13.5-76.4-7.4-84L331.3,208.6z"/>
<path class="st4" d="M307.1,481.6l-3,37.2c0,0,32,19,21.8,22.6c-10.3,3.6-24.3-1.1-27.2-1.9c-3-0.9-8.7-2.2-13.1-3.4
	c-4.1-1-7.1-4.6-7.4-8.8c0-0.1,0-0.1,0-0.2c-0.3-4.6,9.9-44.3,9.9-44.3L307.1,481.6z"/>
<path class="st4" d="M384.8,482.6l2.4,35.5c0,0,36.4,13.8,27,19.5s-24.1,3.7-27,3.5c-5.5-0.5-19.2-0.9-19.2-0.9s-2.5,2.2-3.6-2.1
	c-1.2-4.5,1.5-44.1,1.5-44.1L384.8,482.6z"/>
<ellipse class="st5" cx="362.7" cy="50" rx="28.3" ry="30.4"/>
<polygon class="st5" points="346.2,68.1 340.2,101.7 365.7,113.9 371.5,71.2 "/>
<path class="st2" d="M362.7,104.7l-3-12.2l-17.9-9.2l-6,7.6L316.4,97l22.3,122.4c0,0,76.1,4.6,77.7-7.6
	c1.6-12.1-14.9-45.9-14.9-45.9s4.5-16.7,3-26l-6-36.7l-23.9-7.6l-5.5-6.8l-5,8.2L362.7,104.7z"/>
<path class="st4" d="M329.6,38.3c21.3-6.6,42.2-7.9,62.6,0V24.9c0-4.8-5-8.7-11.1-8.7h-42.6c-4.9,0-8.9,3.1-8.9,6.9l0,0V38.3
	L329.6,38.3z"/>
<polygon points="359.8,275.8 419.8,240.3 454.5,301.7 394.4,337.2 "/>
<path class="st5" d="M343.2,227l31.3,22.9c0,0,13.5,35.1,23.9,29c10.4-6.2-12-36.7-12-36.7l-25.3-26L343.2,227z"/>
<path class="st5" d="M441.4,197.7l3.3,19.4c0,0-8,40.4-17.7,32.3s3.3-33.9,3.3-33.9l-1.6-16.2L441.4,197.7z"/>
<path class="st2" d="M320.9,100.2l-4.5-3.1c0,0-9,1.5-12,13.7s0,67.3,7.4,77.9c7.4,10.7,28.3,42.8,28.3,42.8l28.3-13.7l-29.9-35.1
	l-7.4-44.3L320.9,100.2z"/>
<path class="st2" d="M386.6,106.3l12-3.1c0,0,7.4,3.1,10.4,13.7s19.3,64.2,17.9,68.8s13.5,35.1,13.5,35.1l-20.9,1.5l-12-32l-12-32
	L386.6,106.3z"/>
<path class="st4" d="M313.4,75.3c6.1-3.7,8.8-12,9-19.6c0.2-7.7-1.5-15.2-1.6-22.8c-0.1-1.5,0.1-3.2,0.4-4.6
	c0.6-1.9,1.3-3.7,2.2-5.3c7.8-13.4,21.4-22.8,35.5-23c2.1,0,4.1,0.4,6.1,1.3c1.5,0.7,2,0.6,2.1,2.6c3.4-1.3,7-1.1,10.4,0.4
	c3.3,1.5,6.3,3.6,9.1,6c1.6,1.4,3.2,2.8,4.6,4.5c7.5,8.7,9.3,22.2,7.1,34.1c-0.7,3.9,2.6,7.6,5.5,10c2.8,2.3,6.1,4.6,7.4,8.1
	c1.4,3.6,0.7,7.6,0.9,11.2c0.7,7.4,4.9,13.6,10.9,16.3c-1.3,1.6-3.2,2.4-5.1,2c-2-0.5-3.8-1.5-5.3-2.8c-5.9-4.8-10.1-11.8-11.8-19.7
	c-0.8,4.2-0.6,8.5-0.5,12.9c-0.1,4.8,0.7,9.6,2.2,14c1.6,4.5,4.6,8.1,8.5,10.5c-3.7,2-7.8,0.6-10.8-2.4c-3.1-3-5-7.4-6.3-11.7
	c-2.1-7.2-2.9-14.6-2.4-22.1c-3.5,6.4-4.7,14.1-3.6,21.6c1.3,7.6,4.7,14.4,10.1,19.4c-9.2-0.1-18.2-2.6-26.3-7.5
	c-2.1-1.1-3.9-2.6-5.4-4.6c-2.5-4.1-2-9.5-1.3-14.5c0.7-3.9-3.7-9.5-1.3-12.3c0.7-0.8,1.7-1.3,2.7-1.4c7.5-0.8,14.6-5,18.6-12.2
	c2.8-5,4.7-10.7,4.7-16.3c0-16.4-11.8-29.5-26.4-29.4c-14.5,0-26.4,13.3-26.3,29.5c0,3,0.5,5.9,1.2,8.7c0.9,3.3,1.5,6.6,2,10
	c0.5,3.9,1.2,7.8,2.1,11.6c1.9,7.4,5,14.8,10.9,18.6c-2,1.2-4.3,1.3-6.5,1.5c-7.4,0.9-15.1,0.7-22-2.9
	C318.3,91.5,313.1,83.6,313.4,75.3z"/>
<ellipse class="st5" cx="336.2" cy="54.9" rx="3.1" ry="5.1"/>
<circle class="st6" cx="215.1" cy="182.9" r="14.8"/>
<circle class="st7" cx="109.8" cy="243.3" r="11.8"/>
<circle class="st8" cx="137.4" cy="151.8" r="11.8"/>
<circle class="st8" cx="175.3" cy="65.3" r="10.4"/>
</svg>
