<?xml version="1.0" encoding="utf-8"?>
<!-- Generator: Adobe Illustrator 21.0.0, SVG Export Plug-In . SVG Version: 6.00 Build 0)  -->
<svg version="1.1" id="a2a78cae-10a9-444f-b979-915660fd0031"
	 xmlns="http://www.w3.org/2000/svg" xmlns:xlink="http://www.w3.org/1999/xlink" x="0px" y="0px" viewBox="0 0 742.4 581"
	 style="enable-background:new 0 0 742.4 581;" xml:space="preserve">
<style type="text/css">
	.st0{fill:#3F3D56;}
	.st1{fill:#FF6584;}
	.st2{fill:#D0CDE1;}
	.st3{fill:#FFFFFF;}
	.st4{fill:#2F2E41;}
	.st5{fill:#FFB8B8;}
</style>
<rect x="44.3" y="370.2" width="141.4" height="141.4"/>
<rect x="137.4" y="551" class="st0" width="420" height="2"/>
<path class="st0" d="M230,553.4H0V328.3h230V553.4z M1.4,551.8h227.3v-222H1.4V551.8z"/>
<path class="st0" d="M630,416.2c-62,0-112.4-50.5-112.4-112.4S568.1,191.4,630,191.4s112.4,50.5,112.4,112.4S692,416.2,630,416.2z
	 M630,193c-61.1,0-110.8,49.7-110.8,110.8S568.9,414.6,630,414.6s110.8-49.7,110.8-110.8S691.1,193,630,193L630,193z"/>
<circle cx="630" cy="303.8" r="54.1"/>
<rect x="499.3" y="115.4" transform="matrix(0.866 -0.5 0.5 0.866 2.512 276.6816)" class="st1" width="36.5" height="36.5"/>
<rect x="18.2" y="156.3" transform="matrix(0.866 -0.5 0.5 0.866 -82.3898 41.6089)" class="st0" width="36.5" height="36.5"/>
<rect x="461.2" y="460.4" transform="matrix(0.866 -0.5 0.5 0.866 -175.0915 303.8521)" class="st2" width="36.5" height="36.5"/>
<rect x="99.2" y="425" class="st3" width="31.7" height="31.7"/>
<circle class="st3" cx="630" cy="303.8" r="13.3"/>
<polygon class="st4" points="404.6,119.4 338.9,121.2 330,41 404.6,41 "/>
<path class="st4" d="M335,223.3l-24,170.2c0,0-20.7,60.5-22.4,89.9l-6.4,42.5l28.7,6.5L341.4,413L383,305.2l-4.8,124.3l-9.6,101.4
	l28.7,4.9L415,406.6l19.2-94.9c0,0,14.4-81.8-7.9-89.9L335,223.3z"/>
<path class="st4" d="M309.1,515.5l-3.2,39.8c0,0,34.2,20.3,23.3,24.2c-11,3.9-26-1.2-29.1-2c-3.2-1-9.3-2.4-14-3.6
	c-4.4-1.1-7.6-4.9-7.9-9.4c0-0.1,0-0.1,0-0.2c-0.3-4.9,10.6-47.4,10.6-47.4L309.1,515.5z"/>
<path class="st4" d="M392.3,516.5l2.6,38c0,0,39,14.8,28.9,20.9c-10.1,6.1-25.8,4-28.9,3.7c-5.9-0.5-20.5-1-20.5-1s-2.7,2.4-3.9-2.3
	c-1.3-4.8,1.6-47.2,1.6-47.2L392.3,516.5z"/>
<ellipse class="st5" cx="368.6" cy="53.5" rx="30.3" ry="32.5"/>
<polygon class="st5" points="351,72.9 344.6,108.8 371.8,121.9 378.1,76.2 "/>
<path class="st2" d="M368.6,112.1L365.4,99l-19.2-9.8l-6.4,8.1l-20.7,6.5l23.9,131c0,0,81.5,4.9,83.2-8.1s-16-49.1-16-49.1
	s4.8-17.9,3.2-27.8l-6.4-39.3l-25.6-8.1l-5.9-7.3l-5.3,8.8L368.6,112.1z"/>
<path class="st4" d="M333.2,41c22.8-7.1,45.2-8.5,67,0V26.7c0-5.1-5.3-9.3-11.9-9.3h-45.6c-5.2,0-9.5,3.3-9.5,7.4l0,0L333.2,41
	L333.2,41z"/>
<polygon points="365.5,295.2 429.8,257.2 466.9,322.9 402.6,360.9 "/>
<path class="st5" d="M347.8,243l33.5,24.5c0,0,14.4,37.6,25.6,31c11.1-6.6-12.8-39.3-12.8-39.3L367,231.4L347.8,243z"/>
<path class="st5" d="M448.5,220.8l3.4,20.2c0,0-8.4,42.2-18.5,33.7s3.4-35.4,3.4-35.4l-1.7-16.9L448.5,220.8z"/>
<path class="st2" d="M323.9,107.2l-4.8-3.3c0,0-9.6,1.6-12.8,14.7c-3.2,13.1,0,72,7.9,83.4c7.9,11.4,30.3,45.8,30.3,45.8l30.3-14.7
	l-32-37.6l-7.9-47.4L323.9,107.2z"/>
<path class="st2" d="M394.2,113.8l12.8-3.3c0,0,7.9,3.3,11.1,14.7c3.2,11.4,20.7,68.7,19.2,73.6s14.4,37.6,14.4,37.6l-22.4,1.6
	l-12.8-34.3l-12.8-34.3L394.2,113.8z"/>
<path class="st4" d="M315.9,80.6c6.5-4,9.4-12.8,9.6-21s-1.6-16.3-1.7-24.4c-0.1-1.6,0.1-3.4,0.4-4.9c0.6-2,1.4-4,2.4-5.7
	c8.3-14.3,22.9-24.4,38-24.6c2.2,0,4.4,0.4,6.5,1.4c1.6,0.7,2.1,0.6,2.3,2.8c3.6-1.4,7.5-1.2,11.1,0.4c3.5,1.6,6.7,3.8,9.7,6.4
	c1.7,1.5,3.4,3,4.9,4.8c8,9.3,10,23.8,7.6,36.5c-0.8,4.2,2.8,8.1,5.9,10.7c3,2.5,6.5,4.9,7.9,8.7c1.5,3.8,0.7,8.1,1,12
	c0.7,7.9,5.2,14.6,11.7,17.4c-1.4,1.7-3.4,2.6-5.5,2.1c-2.1-0.5-4.1-1.6-5.7-3c-6.3-5.1-10.8-12.6-12.6-21.1
	c-0.9,4.5-0.6,9.1-0.5,13.8c-0.1,5.1,0.8,10.3,2.4,15c1.7,4.8,4.9,8.7,9.1,11.2c-4,2.1-8.3,0.6-11.6-2.6c-3.3-3.2-5.3-7.9-6.7-12.5
	c-2.2-7.7-3.1-15.6-2.6-23.7c-3.7,6.9-5,15.1-3.8,23.1c1.4,8.1,5,15.4,10.8,20.8c-9.8-0.1-19.5-2.8-28.1-8c-2.2-1.2-4.2-2.8-5.8-4.9
	c-2.7-4.4-2.1-10.2-1.4-15.5c0.7-4.2-4-10.2-1.4-13.2c0.8-0.9,1.8-1.4,2.9-1.5c8-0.9,15.6-5.4,19.9-13.1c3-5.4,5-11.5,5-17.4
	c0-17.5-12.6-31.6-28.3-31.5c-15.5,0-28.3,14.2-28.2,31.6c0,3.2,0.5,6.3,1.3,9.3c1,3.5,1.6,7.1,2.1,10.7c0.5,4.2,1.3,8.3,2.2,12.4
	c2,7.9,5.4,15.8,11.7,19.9c-2.1,1.3-4.6,1.4-7,1.6c-7.9,1-16.2,0.8-23.5-3.1C321.1,97.9,315.5,89.5,315.9,80.6z"/>
<ellipse class="st5" cx="340.3" cy="58.8" rx="3.3" ry="5.5"/>
</svg>
