<svg width="365" height="172" xmlns="http://www.w3.org/2000/svg" xml:space="preserve" version="1.1">
 <title>Front logo</title>

 <g id="Layer_1">
  <title>Layer 1</title>
  <g id="svg_8">
   <g stroke="null" id="svg_8">
    <path stroke="null" fill="#ffffff" id="svg_1" d="m15.28043,22.41879l79.79778,0c8.48913,0 15.28043,6.7913 15.28043,15.28043l0,79.79778c0,8.48913 -6.7913,15.28043 -15.28043,15.28043l-79.79778,0c-8.48913,0 -15.28043,-6.7913 -15.28043,-15.28043l0,-79.79778c0,-8.48913 6.7913,-15.28043 15.28043,-15.28043z"/>
    <g stroke="null" id="svg_4">
     <polygon stroke="null" id="svg_2" fill="#000000" points="57.301597595214844,64.0154750496149 57.301597595214844,77.5981166511774 81.92000579833984,90.75628925859928 57.301597595214844,104.33881641924381 57.301597595214844,117.92146565020084 92.5313949584961,96.69865681231022 92.5313949584961,85.23828388750553 " class="st0"/>
     <polygon stroke="null" id="svg_3" fill="#000000" points="18.251571655273438,96.69865681231022 53.48150634765625,117.92146565020084 53.48150634765625,104.33881641924381 29.287460327148438,90.75628925859928 53.48150634765625,77.5981166511774 53.48150634765625,64.0154750496149 18.251571655273438,85.23828388750553 " class="st0"/>
    </g>
    <g stroke="null" id="svg_7">
     <path stroke="null" id="svg_5" fill="#000000" d="m72.58202,50.4329c-0.42446,0 -1.27337,-0.42446 -1.69783,-0.84891c-0.42446,-0.42446 -0.84891,-0.84891 -0.84891,-1.69783s0,-1.69783 0,-2.54674c0,-1.27337 0,-2.97119 -0.42446,-4.24456c-0.42446,-0.84891 -0.84891,-1.69783 -1.69783,-2.12228c-1.27337,-0.42446 -2.54674,-0.84891 -3.82011,-1.27337c-1.69783,-0.42446 -3.39565,-0.42446 -5.09348,-0.42446l-1.69783,0l0,3.82011c1.27337,0 2.54674,0 3.82011,0c0.42446,0 0.84891,0.42446 1.27337,0.42446c0.42446,0.42446 0.42446,0.84891 0.42446,1.27337c0,0.84891 0,2.12228 0.42446,3.82011c0,0.84891 0.42446,1.69783 0.84891,2.54674c0.42446,0.42446 0.84891,1.27337 1.27337,1.69783c0.84891,0.42446 1.69783,0.84891 2.54674,1.27337c-0.84891,0.42446 -1.69783,0.84891 -2.54674,1.27337c-0.84891,0.42446 -1.27337,1.27337 -1.69783,1.69783c-0.42446,0.84891 -0.42446,1.69783 -0.84891,2.54674c0,1.69783 0,2.97119 0,3.39565s0,1.27337 -0.42446,1.69783c-0.42446,0.42446 -0.84891,0.42446 -1.27337,0.42446c-1.27337,0 -2.54674,0.42446 -3.82011,0.42446l0,3.82011l1.27337,0c1.69783,0 3.82011,0 5.51793,-0.42446c1.27337,0 2.12228,-0.42446 3.39565,-1.27337c0.84891,-0.42446 1.27337,-1.27337 1.69783,-2.12228c0.42446,-1.27337 0.42446,-2.54674 0.42446,-3.39565c0,-1.27337 0,-2.54674 0.42446,-3.82011c0.42446,-0.84891 0.84891,-1.27337 1.69783,-1.69783c1.27337,-0.42446 2.54674,-0.84891 3.82011,-0.84891l0,-2.97119c-0.84891,0 -1.69783,0 -2.97119,-0.42446l0,-0.00003z" class="st0"/>
     <path stroke="null" id="svg_6" fill="#000000" d="m35.22987,50.85736l0,2.97119c1.27337,0 2.54674,0.42446 3.82011,0.84891c0.84891,0.42446 1.27337,0.84891 1.69783,1.69783c0.42446,1.27337 0.42446,2.54674 0.42446,3.82011c0,0.84891 0,2.12228 0.42446,3.39565c0.42446,0.84891 0.84891,1.69783 1.69783,2.12228c1.27337,0.84891 2.12228,1.27337 3.39565,1.27337c1.69783,0.42446 3.82011,0.42446 5.51793,0.42446l1.27337,0l0,-3.82011c-1.27337,0 -2.54674,-0.42446 -3.82011,-0.42446c-0.42446,0 -0.84891,0 -1.27337,-0.42446s-0.42446,-1.27337 -0.42446,-1.69783s0,-1.69783 0,-3.39565c-0.42446,-0.84891 -0.42446,-1.69783 -0.84891,-2.54674c-0.42446,-0.42446 -0.84891,-1.27337 -1.69783,-1.69783c-0.84891,-0.42446 -1.69783,-0.84891 -2.54674,-1.27337c0.84891,-0.42446 1.69783,-0.84891 2.54674,-1.27337c0.42446,-0.42446 0.84891,-1.27337 1.27337,-1.69783c0.42446,-0.84891 0.84891,-1.69783 0.84891,-2.54674c0.42446,-1.69783 0.42446,-2.97119 0.42446,-3.82011c0,-0.42446 0,-0.84891 0.42446,-1.27337c0.42446,0 0.84891,-0.42446 1.27337,-0.42446c1.27337,0 2.54674,0 3.82011,0l0,-3.82011l-1.69783,0c-1.69783,0 -3.39565,0 -5.09348,0.42446c-1.27337,0.42446 -2.54674,0.84891 -3.82011,1.27337c-0.84891,0.42446 -1.27337,1.27337 -1.69783,2.12228c-0.42446,1.27337 -0.42446,2.97119 -0.42446,4.24456c0,0.84891 0,1.69783 0,2.54674s-0.42446,1.27337 -0.84891,1.69783c-0.42446,0.42446 -1.27337,0.84891 -1.69783,0.84891c-1.27337,0.42446 -2.12228,0.42446 -2.97119,0.42446l0,0.00003z" class="st0"/>
    </g>
   </g>
  </g>
  <text font-weight="normal" xml:space="preserve" text-anchor="start" font-family="'Heebo'" font-size="112" id="svg_10" y="123.76399" x="126.94095" fill="#ffffff" stroke="#000" transform="matrix(1.0163 0 0 0.990031 -0.30922 0.0107636)">front</text>
  <path id="svg_9" d="m52.41021,0" opacity="NaN" stroke-width="0" stroke="#000" fill="#000000"/>
 </g>
</svg>