<svg width="331.00000000000006" height="159" xmlns="http://www.w3.org/2000/svg" version="1.1" xml:space="preserve">
 <title>Front logo</title>

 <g id="Layer_1">
  <title>Layer 1</title>
  <g id="svg_8">
   <g id="svg_8" stroke="null">
    <path d="m15.28043,22.41879l79.79778,0c8.48913,0 15.28043,6.7913 15.28043,15.28043l0,79.79778c0,8.48913 -6.7913,15.28043 -15.28043,15.28043l-79.79778,0c-8.48913,0 -15.28043,-6.7913 -15.28043,-15.28043l0,-79.79778c0,-8.48913 6.7913,-15.28043 15.28043,-15.28043z" id="svg_1" fill="#ffffff" stroke="null"/>
    <g id="svg_4" stroke="null">
     <polygon class="st0" points="57.301597595214844,64.01546859741211 57.301597595214844,77.59811782836914 81.92000579833984,90.75628662109375 57.301597595214844,104.33881378173828 57.301597595214844,117.92146301269531 92.5313949584961,96.69865417480469 92.5313949584961,85.23828125 " fill="#000000" id="svg_2" stroke="null"/>
     <polygon class="st0" points="18.251571655273438,96.69865417480469 53.48150634765625,117.92146301269531 53.48150634765625,104.33881378173828 29.287460327148438,90.75628662109375 53.48150634765625,77.59811782836914 53.48150634765625,64.01546859741211 18.251571655273438,85.23828125 " fill="#000000" id="svg_3" stroke="null"/>
    </g>
    <g id="svg_7" stroke="null">
     <path class="st0" d="m72.58202,50.4329c-0.42446,0 -1.27337,-0.42446 -1.69783,-0.84891c-0.42446,-0.42446 -0.84891,-0.84891 -0.84891,-1.69783s0,-1.69783 0,-2.54674c0,-1.27337 0,-2.97119 -0.42446,-4.24456c-0.42446,-0.84891 -0.84891,-1.69783 -1.69783,-2.12228c-1.27337,-0.42446 -2.54674,-0.84891 -3.82011,-1.27337c-1.69783,-0.42446 -3.39565,-0.42446 -5.09348,-0.42446l-1.69783,0l0,3.82011c1.27337,0 2.54674,0 3.82011,0c0.42446,0 0.84891,0.42446 1.27337,0.42446c0.42446,0.42446 0.42446,0.84891 0.42446,1.27337c0,0.84891 0,2.12228 0.42446,3.82011c0,0.84891 0.42446,1.69783 0.84891,2.54674c0.42446,0.42446 0.84891,1.27337 1.27337,1.69783c0.84891,0.42446 1.69783,0.84891 2.54674,1.27337c-0.84891,0.42446 -1.69783,0.84891 -2.54674,1.27337c-0.84891,0.42446 -1.27337,1.27337 -1.69783,1.69783c-0.42446,0.84891 -0.42446,1.69783 -0.84891,2.54674c0,1.69783 0,2.97119 0,3.39565s0,1.27337 -0.42446,1.69783c-0.42446,0.42446 -0.84891,0.42446 -1.27337,0.42446c-1.27337,0 -2.54674,0.42446 -3.82011,0.42446l0,3.82011l1.27337,0c1.69783,0 3.82011,0 5.51793,-0.42446c1.27337,0 2.12228,-0.42446 3.39565,-1.27337c0.84891,-0.42446 1.27337,-1.27337 1.69783,-2.12228c0.42446,-1.27337 0.42446,-2.54674 0.42446,-3.39565c0,-1.27337 0,-2.54674 0.42446,-3.82011c0.42446,-0.84891 0.84891,-1.27337 1.69783,-1.69783c1.27337,-0.42446 2.54674,-0.84891 3.82011,-0.84891l0,-2.97119c-0.84891,0 -1.69783,0 -2.97119,-0.42446l0,-0.00003z" fill="#000000" id="svg_5" stroke="null"/>
     <path class="st0" d="m35.22987,50.85736l0,2.97119c1.27337,0 2.54674,0.42446 3.82011,0.84891c0.84891,0.42446 1.27337,0.84891 1.69783,1.69783c0.42446,1.27337 0.42446,2.54674 0.42446,3.82011c0,0.84891 0,2.12228 0.42446,3.39565c0.42446,0.84891 0.84891,1.69783 1.69783,2.12228c1.27337,0.84891 2.12228,1.27337 3.39565,1.27337c1.69783,0.42446 3.82011,0.42446 5.51793,0.42446l1.27337,0l0,-3.82011c-1.27337,0 -2.54674,-0.42446 -3.82011,-0.42446c-0.42446,0 -0.84891,0 -1.27337,-0.42446s-0.42446,-1.27337 -0.42446,-1.69783s0,-1.69783 0,-3.39565c-0.42446,-0.84891 -0.42446,-1.69783 -0.84891,-2.54674c-0.42446,-0.42446 -0.84891,-1.27337 -1.69783,-1.69783c-0.84891,-0.42446 -1.69783,-0.84891 -2.54674,-1.27337c0.84891,-0.42446 1.69783,-0.84891 2.54674,-1.27337c0.42446,-0.42446 0.84891,-1.27337 1.27337,-1.69783c0.42446,-0.84891 0.84891,-1.69783 0.84891,-2.54674c0.42446,-1.69783 0.42446,-2.97119 0.42446,-3.82011c0,-0.42446 0,-0.84891 0.42446,-1.27337c0.42446,0 0.84891,-0.42446 1.27337,-0.42446c1.27337,0 2.54674,0 3.82011,0l0,-3.82011l-1.69783,0c-1.69783,0 -3.39565,0 -5.09348,0.42446c-1.27337,0.42446 -2.54674,0.84891 -3.82011,1.27337c-0.84891,0.42446 -1.27337,1.27337 -1.69783,2.12228c-0.42446,1.27337 -0.42446,2.97119 -0.42446,4.24456c0,0.84891 0,1.69783 0,2.54674s-0.42446,1.27337 -0.84891,1.69783c-0.42446,0.42446 -1.27337,0.84891 -1.69783,0.84891c-1.27337,0.42446 -2.12228,0.42446 -2.97119,0.42446l0,0.00003z" fill="#000000" id="svg_6" stroke="null"/>
    </g>
   </g>
  </g>
  <text fill="#000000" stroke="#000" x="119.03604" y="116.73967" id="svg_10" font-size="100" font-family="'Heebo'" text-anchor="start" xml:space="preserve" font-weight="normal" stroke-width="0">front</text>
  <path fill="#000000" stroke="#000" stroke-width="0" opacity="NaN" d="m52.41021,0" id="svg_9"/>
 </g>
</svg>