<?xml version="1.0" encoding="UTF-8"?>
<svg viewBox="0 0 26 26" xmlns="http://www.w3.org/2000/svg">
<rect width="26" height="26" rx="3.62" ry="3.62"/>
<path class="cls-1" d="M8.15,7.58v-.9a3,3,0,0,0,.69-.08,1,1,0,0,0,.4-.23A.82.82,0,0,0,9.47,6a2.65,2.65,0,0,0,.05-.63,3.13,3.13,0,0,1,.11-1A.93.93,0,0,1,10,3.87a2.64,2.64,0,0,1,.86-.28,7.62,7.62,0,0,1,1.21-.07h.33v.9a5.09,5.09,0,0,0-.89,0,.59.59,0,0,0-.29.14.46.46,0,0,0-.09.33q0,.24-.06.9a1.47,1.47,0,0,1-.16.6,1.22,1.22,0,0,1-.34.38,2.76,2.76,0,0,1-.63.31,2.31,2.31,0,0,1,.61.3,1.17,1.17,0,0,1,.36.42,1.81,1.81,0,0,1,.16.65q0,.62,0,.8a.48.48,0,0,0,.1.35.66.66,0,0,0,.3.15,4.63,4.63,0,0,0,.88.05v.9h-.33a7.9,7.9,0,0,1-1.3-.08,2.21,2.21,0,0,1-.76-.27.94.94,0,0,1-.42-.46,2.59,2.59,0,0,1-.11-.87,2.5,2.5,0,0,0-.1-.9A.84.84,0,0,0,9,7.73,2.33,2.33,0,0,0,8.15,7.58Z"/>
<path class="cls-1" d="m12.44 22.64-8.3-5v-2.8l8.3-5v3.27l-5.79 3.09 5.79 3.19z"/>
<path class="cls-1" d="M13.3,22.65V19.4l5.8-3.17L13.3,13.1V9.87l8.31,5v2.75Z"/>
<path class="cls-1" d="M16.72,7.68a.84.84,0,0,0-.42.43,2.5,2.5,0,0,0-.1.9,2.6,2.6,0,0,1-.11.87,1,1,0,0,1-.42.46,2.21,2.21,0,0,1-.76.27,7.88,7.88,0,0,1-1.3.08H13.3v-.9a4.66,4.66,0,0,0,.88-.05.66.66,0,0,0,.3-.15.47.47,0,0,0,.1-.35q0-.17,0-.8a1.82,1.82,0,0,1,.16-.65,1.17,1.17,0,0,1,.36-.42,2.31,2.31,0,0,1,.6-.3,2.77,2.77,0,0,1-.62-.31,1.22,1.22,0,0,1-.33-.38,1.47,1.47,0,0,1-.16-.6q-.06-.66-.06-.9a.46.46,0,0,0-.09-.33.59.59,0,0,0-.29-.14,5.07,5.07,0,0,0-.89,0v-.9h.33a7.65,7.65,0,0,1,1.2.07,2.65,2.65,0,0,1,.86.28.93.93,0,0,1,.41.46,3.13,3.13,0,0,1,.11,1,2.68,2.68,0,0,0,0,.63.82.82,0,0,0,.23.4,1,1,0,0,0,.4.23,3,3,0,0,0,.69.08v.9A2.31,2.31,0,0,0,16.72,7.68Z"/>
</svg>
