<?xml version="1.0" encoding="utf-8"?>
<!-- Generator: Adobe Illustrator 21.0.0, SVG Export Plug-In . SVG Version: 6.00 Build 0)  -->
<svg version="1.1" id="Icon" xmlns="http://www.w3.org/2000/svg" xmlns:xlink="http://www.w3.org/1999/xlink" x="0px" y="0px"
	 viewBox="0 0 26 26" style="enable-background:new 0 0 26 26;" xml:space="preserve">
<style type="text/css">
	.st0{display:none;fill:#0000CD;}
	.st1{fill:#0000CD;}
	.st2{fill:#FFFFFF;}
	.st3{fill:none;stroke:#0000CD;stroke-width:0.5;stroke-miterlimit:10;}
</style>
<title>1</title>
<path class="st0" d="M3.6,0h18.8c2,0,3.6,1.6,3.6,3.6l0,0v18.8c0,2-1.6,3.6-3.6,3.6l0,0H3.6c-2,0-3.6-1.6-3.6-3.6l0,0V3.6
	C0,1.6,1.6,0,3.6,0L3.6,0z"/>
<g>
	<path class="st1" d="M3.6,0h18.8c2,0,3.6,1.6,3.6,3.6l0,0v18.8c0,2-1.6,3.6-3.6,3.6l0,0H3.6c-2,0-3.6-1.6-3.6-3.6l0,0V3.6
		C0,1.6,1.6,0,3.6,0L3.6,0z"/>
</g>
<path class="st2" d="M5.6,7.8h14.7c0.3,0,0.5,0.2,0.5,0.5v9.3c0,0.3-0.2,0.5-0.5,0.5H5.6c-0.3,0-0.5-0.2-0.5-0.5V8.3
	C5.1,8,5.3,7.8,5.6,7.8z"/>
<line class="st3" x1="7.1" y1="13" x2="18.9" y2="13"/>
<line class="st3" x1="7.1" y1="10.6" x2="18.9" y2="10.6"/>
<line class="st3" x1="7" y1="15.2" x2="18.8" y2="15.2"/>
</svg>
