<?xml version="1.0" encoding="utf-8"?>
<!-- Generator: Adobe Illustrator 21.0.0, SVG Export Plug-In . SVG Version: 6.00 Build 0)  -->
<svg version="1.1" id="Icon" xmlns="http://www.w3.org/2000/svg" xmlns:xlink="http://www.w3.org/1999/xlink" x="0px" y="0px"
	 viewBox="0 0 26 26" style="enable-background:new 0 0 26 26;" xml:space="preserve">
<style type="text/css">
	.st0{fill:#0303FF;}
	.st1{fill:#FFFFFF;}
</style>
<title>1</title>
<path class="st0" d="M3.6,0h18.8c2,0,3.6,1.6,3.6,3.6l0,0v18.8c0,2-1.6,3.6-3.6,3.6l0,0H3.6c-2,0-3.6-1.6-3.6-3.6l0,0V3.6
	C0,1.6,1.6,0,3.6,0L3.6,0z"/>
<path class="st1" d="M15.2,18.6h-4.5c-3.2,0-5.8-2.4-5.8-5.4l0,0c0-3,2.6-5.4,5.8-5.4h4.5c3.2,0,5.8,2.4,5.8,5.4l0,0
	C20.9,16.2,18.3,18.6,15.2,18.6z"/>
</svg>
